<mxfile host="Electron" modified="2023-12-15T17:04:08.571Z" agent="Mozilla/5.0 (Windows NT 10.0; Win64; x64) AppleWebKit/537.36 (KHTML, like Gecko) draw.io/22.1.2 Chrome/114.0.5735.289 Electron/25.9.4 Safari/537.36" etag="7TF8_LdZWXNaVl3d6sJ7" version="22.1.2" type="device">
  <diagram id="W3zKeBH2BQrK53NVgT25" name="Page-1">
    <mxGraphModel dx="1480" dy="866" grid="1" gridSize="10" guides="1" tooltips="1" connect="1" arrows="1" fold="1" page="1" pageScale="1" pageWidth="850" pageHeight="1100" math="0" shadow="0">
      <root>
        <mxCell id="0" />
        <mxCell id="1" parent="0" />
        <mxCell id="2" value="" style="endArrow=classic;html=1;strokeWidth=2;fontSize=20;fontStyle=1" parent="1" edge="1">
          <mxGeometry width="50" height="50" relative="1" as="geometry">
            <mxPoint x="40" y="40" as="sourcePoint" />
            <mxPoint x="320" y="40" as="targetPoint" />
          </mxGeometry>
        </mxCell>
        <mxCell id="3" value="" style="endArrow=classic;html=1;strokeWidth=2;fontSize=20;fontStyle=1" parent="1" edge="1">
          <mxGeometry width="50" height="50" relative="1" as="geometry">
            <mxPoint x="40" y="40" as="sourcePoint" />
            <mxPoint x="40" y="240" as="targetPoint" />
          </mxGeometry>
        </mxCell>
        <mxCell id="8" value="O" style="text;html=1;align=center;verticalAlign=middle;resizable=0;points=[];autosize=1;strokeColor=none;fillColor=none;strokeWidth=2;fontSize=20;fontStyle=1" parent="1" vertex="1">
          <mxGeometry width="40" height="40" as="geometry" />
        </mxCell>
        <mxCell id="9" value="x" style="text;html=1;align=center;verticalAlign=middle;resizable=0;points=[];autosize=1;strokeColor=none;fillColor=none;strokeWidth=2;fontSize=20;fontStyle=1" parent="1" vertex="1">
          <mxGeometry x="290" y="40" width="30" height="40" as="geometry" />
        </mxCell>
        <mxCell id="10" value="y" style="text;html=1;align=center;verticalAlign=middle;resizable=0;points=[];autosize=1;strokeColor=none;fillColor=none;strokeWidth=2;fontSize=20;fontStyle=1" parent="1" vertex="1">
          <mxGeometry x="40" y="200" width="30" height="40" as="geometry" />
        </mxCell>
        <mxCell id="13" value="" style="shape=image;verticalLabelPosition=bottom;labelBackgroundColor=default;verticalAlign=top;aspect=fixed;imageAspect=0;image=data:image/png,iVBORw0KGgoAAAANSUhEUgAAAmQAAAGKCAYAAACit13TAAAAAXNSR0IArs4c6QAAAARnQU1BAACxjwv8YQUAAAAJcEhZcwAAFxEAABcRAcom8z8AAC38SURBVHhe7d1/lN11nd/xPUe6siqW9XiUFGECiUAEmqBLJhFpAhMkB1wETRV/Bk344Q9MJoRt8EdBCyusKxSlUHFZUGlZFUVWEYuwWZMJEQ2GBZR115rj7rF0a0+zpz1bzh7bfvt9zfeT+X4yeWXunZnP997P987zdc7jj743fO7MnU/v5+X98b2/8RvfOL8AAABAH9khAAAAescOAQAA0Dt2CAAAgN6xQwAAAPSOHQIAAKB37FAIIYQQQkjauM4ldiiEEEIIISRtXOcSOxRCCCGEEJI2rnOJHcoAZWj40vlDw+svmr/s4jvnL1u/tVQAAICMDa97Zv7w+geHlq3fOLT8khPCkd7+uM4ldigtztCKtYcODb/3wlDA9hzwRwYAAG2zpyxptw0tf+/5OufDkd++uM4ldigtTFXC1t9TNurnJv0RAQDAINn37NnwpfNDDWhHXOcSO5SWRE9jhmfC9h7wxwIAAHPBfUNL1y8L1SDvuM4ldiiZZ2h43Ur9ASb9QQAAwJy1bqdeLQtVIc+4ziV2KJlGrx2Xd/hu/4cAAABYv2do2frLsnyvmetcYoeSWfRUpJqvudMBAACcvUPD667Jqpi5ziV2KJlEb9Yr71BemgQAADMzvO6ZoWXrVodq0d+4ziV2KBlEn57gE5MAACCNi+8cWrH28FAz+hPXucQOpY/RnaWPs/o7EwAAYMae7euzZa5ziR1Kn1K9V2z9s5PuPAAAgIT69GyZ61xih9KH6I13/k4DAABI7lldRivUkN7EdS6xQ+lhhk5de0R5p/AdkwAAoOd0iYxQSZqP61xih9Kj6HXc0t+7OwgAAKAnlq+7KVSTZuM6l9ih9CBDw+u22DsFAACg9+5p/JplrnOJHUrD4f1iAAAgP+t2Nvpmf9e5xA6lwfDMGAAAyJYuJDt86fxQW9LGdS6xQ2koQ8PrL7K/PAAAQD72Dr12/ZJQX9LFdS6xQ2kglDEAANAie5I/U+Y6l9ihJA5lDAAAtM+63Unf6O86l9ihJAxlDAAAtNbw+gdDpZl9XOcSO5REoYwBAIDWG153W6g2s4vrXGKHkiBDyy85Yf6yi39tfzEAAIAW0VUiQsWZeVznEjuUWUavtx572vv/i/uFAAAA2mho+L0Xhqozs7jOJXYos8yC0y//uvtFAAAAWmt4/XOzuhyG61xihzKLzH/t+y+2vwQAAEDrrdsZKs/04zqX2KHMMEOnrj1i/rJL/o//BQAAANpvaNn6jaH6TC+uc4kdygzzypWbHnc/OAAAwMDQS5enrj0i1J/u4zqX2KHMIK86+yMfsD80AADA4LkvVKDu4zqX2KFMM/pm9GNf94F/ND8sAADAQJr2py5d5xI7lGnm+FX/6tvuBwUAABhgz+pJqVCHOsd1LrFDmUaOW331Pz9m+aX/z/yQAAAAg206V/F3nUvsUKaR41dt+Zn9AQEAAOaAoeFL54daNHVc5xI7lC5zyptueqv7wQAAAOaM5etuCtVo6rjOJXYoXWbRWR/h65EAAMDc1u1lMFznEjuULsKzYwAAAJWuLhbrOpfYoXSRE8/5xM/dDwQAADAH6ROXh4aa5OM6l9ihdMiZl35n6TGvvdT9MAAAAHNSx+uSuc4ldigdsuRNNz3ifhAAAIC5a93uUJV8XOcSO5QpsmLz1iOOG7ny//ofBAAAYO4aWrZudahMB8Z1LrFDmSLL3/Pl33c/AAAAANbfEyrTgXGdS+xQpsjiC2581tw4AADAnDe0bN3fh8p0YFznEjuUg+SsDWNLjjvjCvsDAAAAQG/uX7cyVKf94zqX2KEcJKdd/I1b3Q0DAACgUhaya0J12j+uc4kdykHy6n95y/90NwwAAIBg+fonQ3XaP65ziR2KycgV21cuOvuj/oYBAAAwYWjF2sNDharjOpfYoZic8aFHruVisAAAAJ0NDa+/KFSoOq5ziR2KyWkXf+2H7gYBAAAw2cV3hgpVx3UusUOZlBVXbz30NRd+7tf+BgEAALC/i/9bqFF1XOcSO5RJGRndtvqkN/y+uTEAAAA4Q8OXzg9VqorrXGKHMikjm8ZueuWKUXtjAAAAONAB1yNznUvsUCblzI1bv+duCAAAAN7Q8HsvDFWqiutcYocyKadf9q1fuRsCAADAQZx26eZQpaq4ziV2KFFWbNh6+PKL/qO/IQAAAFivXLnxj0OdquI6l9ihRFk1un3Z77ztdntDAAAA8I47c/OfhzpVxXUusUOJcubotguXvOlGe0MAAADwXrnyip+GOlXFdS6xQ4kycsXYJ1+1+mp7QwAAAPAWrtz4P0KdquI6l9ihRFk1uuNOvsMSAABgeo593Qf+MdSpKq5ziR1KlFWjY/dRyAAAAKYv1KkqrnOJHUqUVZvGtnJRWAAAgOkLdaqK61xihxKFQgYAADAzoU5VcZ1L7FCilIVsD4UMAABg+kKdquI6l9ihRFEhczcAAACAqYU6VcV1LrFDiVIWsr3uBgAAADC1UKequM4ldihRykJmbwAAAABTC3WqiutcYocShUIGAAAwM6FOVXGdS+xQolDIAAAAZibUqSquc4kdShQKGQAAwMyEOlXFdS6xQ4lCIQMAAJiZUKequM4ldihRKGQAAAAzE+pUFde5xA4lCoUMAABgZkKdquI6l9ihRKGQAQAAzEyoU1Vc5xI7lCgUMgAAgJkJdaqK61xihxJFhQwAAADTF+pUFde5xA4lilscAAAAnYU6VcV1LrFDieIWBwAAQGehTlVxnUvsUKK4xQEAANBZqFNVXOcSO5QobnEAAAB0FupUFde5xA4lilscAAAAnYU6VcV1LrFDieIWBwAAQGehTlVxnUvsUKK4xQEAANBZqFNVXOcSO5QobnEAAAB0FupUFde5xA4lilscAAAAnYU6VcV1LrFDieIWBwAAQGehTlVxnUvsUKK4xQEAANBZqFNVXOcSO5QobnEAAAB0FupUFde5xA4lilscAAAAnYU6VcV1LrFDieIWBwAAQGehTlVxnUvsUKK4xQEAANBZqFNVXOcSO5QobnEAAAB0FupUFde5xA4lilscAAAAnYU6VcV1LrFDieIWBwAAQGehTlVxnUvsUKK4xQEAANBZqFNVXOcSO5QobnEAAAB0FupUFde5xA4lilscAAAAnYU6VcV1LrFDieIWBwAAQGehTlVxnUvsUKK4xQEAANBZqFNVXOcSO5QobnEAAAB0FupUFde5xA4lilscAAAAnYU6VcV1LrFDieIWBwAAQGehTlVxnUvsUKK4xQEAANBZqFNVXOcSO5QobnEAAAB0FupUFde5xA4lilscAAAAnYU6VcV1LrFDieIWBwAAQGehTlVxnUvsUKK4xQEAANBZqFNVXOcSO5QobnEAAAB0FupUFde5xA4lilscAAAAnYU6VcV1LrFDieIWBwAAQGehTlVxnUvsUKK4xQEAANBZqFNVXOcSO5QobnEAAAB0FupUFde5xA4lilscAAAAnYU6VcV1LrFDieIWBwAAQGehTlVxnUvsUKK4xQEAANBZqFNVXOcSO5QobnEAAAB0FupUFde5xA4lilscAAAAnYU6VcV1LrFDieIWBwAAQGehTlVxnUvsUKK4xQEAANBZqFNVXOcSO5QobnEAAAB0FupUFde5xA4lilscAAAAnYU6VcV1LrFDieIWBwAAQGehTlVxnUvsUKK4xQEAANBZqFNVXOcSO5QobnEAAAB0FupUFde5xA4lilscAAAAnYU6VcV1LrFDieIWBwAAQGehTlVxnUvsUKK4xQEAANBZqFNVXOcSO5QobnEAAAB0FupUFde5xA4lilscAAAAnYU6VcV1LrFDieIWBwAAQGehTlVxnUvsUKK4xQEAANBZqFNVXOcSO5QobnEAAAB0FupUFde5xA4lilscAAAAnYU6VcV1LrFDieIWBwAAQGehTlVxnUvsUKK4xQEAANBZqFNVXOcSO5QobnEAAAB0FupUFde5xA4lilscAAAAnYU6VcV1LrFDieIWBwAAQGehTlVxnUvsUKK4xQEAANBZqFNVXOcSO5QobnEAAAB0FupUFde5xA4lilu8zd7+8UeLW+7eVTz40BPF4489Oe4f/ubHxa9/+RO01L6/48OPPFHcfs+u4pLrd9q/PQAAvRbqVBXXucQOJYpbvI1UwvY89bQ90DF4fvmTp4u77n28OP+qHXY/AADQC6FOVXGdS+xQorjF2+Rjt/5g/HB2hzYG39/99dPFjV/4od0bAAA0LdSpKq5ziR1KFLd4G5xz5Y7i/m/vtoc05p5t33uCZ8sAAD0X6lQV17nEDiWKWzx3Onif2vWkPZgxd+kla72H0O0ZAACaEOpUFde5xA4lils8Z3pmjDKGg9HL1zxTBgDolVCnqrjOJXYoUdziOdOnJ91BDOyjT2S6vQMAQGqhTlVxnUvsUKK4xXP1b27/gT2Agcn0qVu3hwAASCnUqSquc4kdShS3eI70UqU+UecOX2AyXXvuLR/l/WQAgGaFOlXFdS6xQ4niFs+RnvFwBy9wMF/95o/sXgIAIJVQp6q4ziV2KFHc4jniWmOYLj1LpmdW3X4CACCFUKequM4ldihR3OK5uejaR+2BC3Sy5TOP2T0FAEAKoU5VcZ1L7FCiuMVzo6/IcYct0Ik+lev2FAAAKYQ6VcV1LrFDieIWz42uwu4OW6CTn+5+yu4pAABSCHWqiutcYocSxS2eG11Xyh22QCd676HbUwAApBDqVBXXucQOJYpbPDe8oR+z4fYUAAAphDpVxXUusUOJ4hbPjT4t5w5aoBtuTwEAkEKoU1Vc5xI7lChu8dy4QxbolttTAACkEOpUFde5xA4lils8N+6QBbrl9hQAACmEOlXFdS6xQ4niFs+NO2SBbrk9BQBACqFOVXGdS+xQorjFc+MOWaBbbk8BAJBCqFNVXOcSO5QobvHcuEMW6JbbUwAApBDqVBXXucQOJYpbPDfukAW65fYUZmbZ224pjh9eUwwtXFzMmzcPAPpKj0XHnXpesXTNDfYxqxdCnariOpfYoURxi+fGHbJAt9yewvSdtHK9fUAEgByomLnHrqaFOlXFdS6xQ4niFs+NO2SBbrk9henR//p0D4AAkJNTzr3KPoY1KdSpKq5ziR1KFLd4btwhC3TL7SlMj/6Xp3vwA4CcHLNouX0Ma1KoU1Vc5xI7lChu8dy4QxbolttTmJ6jjl1kH/wAIDfuMaxJoU5VcZ1L7FCiuMVz4w5ZoFtuT2F6Fi5ZZR/4ACAnepO/ewxrUqhTVVznEjuUKG7x3LhDFuiW21OYniWrN9sHPwDIiT585B7DmhTqVBXXucQOJYpbPDfukAW65fYUpmdkw9Ziwckr7AMgAORAz46deflD9jGsSaFOVXGdS+xQorjFc+MOWaBbbk9h+lTKTh55H+8nA5CVI49eUJx4+tq+lDEJdaqK61xihxLFLZ4bd8gC3XJ7CgCAFEKdquI6l9ihRHGL58YdskC33J4CACCFUKequM4ldihR3OK5cYcs0C23pwAASCHUqSquc4kdShS3eG7cIQt0y+0pAABSCHWqiutcYocSxS2eG3fIAt1yewoAgBRCnariOpfYoURxi+fGHbJAt9yeAgAghVCnqrjOJXYoUdziuXGHLNAtt6cAAEgh1KkqrnOJHUoUt3hu3CELdMvtKQAAUgh1qorrXGKHEsUtnht3yALdcnsKAIAUQp2q4jqX2KFEcYvnxh2yQLfcngIAIIVQp6q4ziV2KFHc4rlxhyzQLbenAABIIdSpKq5ziR1KFLd4btwhC3TL7SkAAFIIdaqK61xihxLFLZ4bd8gC3XJ7CgCAFEKdquI6l9ihRHGL58YdskC33J4CACCFUKequM4ldihR3OK5cYcs0C23pwAASCHUqSquc4kdShS3eG7cIQt0y+0pAABSCHWqiutcYocSxS2eG3fIAt1yewoAgBRCnariOpfYoURxi+fGHbJAt9yeAgAghVCnqrjOJXYoUdziuXGHLNAtt6cAAEgh1KkqrnOJHUoUt3hu3CELdMvtKQAAUgh1qorrXGKHEsUtnht3yALdcnsKAIAUQp2q4jqX2KFEcYvnxh2yQLfcngIAIIVQp6q4ziV2KFHc4rlxhyzQLbenAABIIdSpKq5ziR1KFLd4btwhC3TL7SkAAFIIdaqK61xihxLFLZ4bd8gC3XJ7CgCAFEKdquI6l9ihRHGL58YdskC33J4CACCFUKequM4ldihR3OK5cYcs0C23pwAASCHUqSquc4kdShS3eG7cIQt0y+0pAABSCHWqiutcYocSxS2eG3fIAt1yewoAgBRCnariOpfYoURxi+fGHbJAt9yeAgAghVCnqrjOJXYoUdziuXGHLNAtt6cAAEgh1KkqrnOJHUoUt3hu3CELdMvtKQAAUgh1qorrXGKHEsUtnht3yALdcnsKAIAUQp2q4jqX2KFEcYvnxh2yQLfcngIAIIVQp6q4ziV2KFHc4rlxhyzQLbenAABIIdSpKq5ziR1KFLd4btwhOxf96pnHil0Pfb24947PjrvjpuuKh++9y/5b1NyeAgAghVCnqrjOJXYoUdziuXGH7FygAqbitWL50uLwFx+mv9uU3rh6pPj0NVvG/zu33lzl9hQAACmU528d17nEDiWKWzw37pAdVCpTeuZr8YkndFXCDkYlTuu425hr3J7qlWVvu6U4fnhNMbRwcTFv3jwAQEJ6bD3u1POKpWtusI/BvVCeuXVc5xI7lChu8dy4Q3bQqIh96OJ3z6qEOUNHHTnni5nbU71w0sr19gEEAJCeipl7LG5aedbWcZ1L7FCiuMVz4w7ZQaKXJVWcyj9HY/SMm95/5m5/0Lk91TT9rzX3gAEAaM4p515lH5ObVJ6xdVznEjuUKG7x3LhDdhCoIKkolX+GntGzcHo2bi69z8ztqabpf6m5BwsAQHOOWbTcPiY3qTxb67jOJXYoUdziuXGHbNvpWbHUL0/OhN5rppL2s+9/1/6cg8DtqaYddewi+2ABAGiWe0xuUnmW1nGdS+xQorjFc+MO2TbTJyFzKGOTvfstF9ift+3cnmrawiWr7AMFAKA5epO/e0xuUnl+1nGdS+xQorjFc+MO2bbSG+xzLGP7DOJ7zdyeatqS1ZvtgwUAoDn6MJV7TG5SeXbWcZ1L7FCiuMVz4w7ZNtLLgjmXsX30Mw5SKXN7qmkjG7YWC05eYR8wAADp6dmxMy9/yD4mN6k8N+u4ziV2KFHc4rlxh2wb6f1a5V3eCoNUytye6gWVspNH3sf7yQCgQUcevaA48fS1fSljUp6ZdVznEjuUKG7x3LhDtm30vrHy7m4VXYrD/S5t4/YUAAAplOdlHde5xA4lils8N+6QbRNdYqINL1U6KpLud2oTt6cAAEihPCvruM4ldihR3OK5cYdsm3xs0wcmCk4/qAzu+zJyXeLC/ZuD0X/rfqc2cXsKAIAUyrOyjutcYocSxS2eG3fItkW/nx3T+9YmX2NM/29d4sL9e6ft1yhzewoAgBTKc7KO61xihxLFLZ4bd8i2Rb/eO6YSqNue6or83T5z1/aXLd2eAgAghfKcrOM6l9ihRHGL58Ydsm3xxtUjE8WmV/a9RBn/HCpm1101Wvzt7m37zR++9y67Rkwvc8b/Tdu4PQUAQArlOVnHdS6xQ4niFs+NO2TboB8vV7qXKL//7a9MfHn5oc9//vh7yeL/uy5vMdXPqVIZ//u2cXsKAIAUynOyjutcYocSxS2eG3fItoGKTnkX98S+lygn/wyaHXLI8w749x/ecNl+/04lbvK/2Udrx/+2bdyeAgAghfKcrOM6l9ihRHGL58Ydsm2glw3Lu7hx7uuOHn3gy8W71rzR/vt93nfR24v//INHJv6bqV6+jNduG7enAABIoTwj67jOJXYoUdziuXGHbBv04g39+rTk5Dfuf+MLtxYvfclv238/mV7ifO4XT038twe7LMZUHw7IndtTAACkUJ6RdVznEjuUKG7x3LhDtg2aLGTujft6tmvz+9cVL3zBb9n/5mC2fOiS/dZxX/HU5q9RcnsKAIAUyjOyjutcYocSxS2eG3fItkEThUxFzD0r9sB/uL14w1ln2P+mk8Ne9MLij26s3+jvPoyglzPj22sTt6cAAEihPCPruM4ldihR3OK5cYdsG6S85IUKktZzz1TdfO1Hihe98AX2v+uWXuLcs2vrxJqT3/9GIQMA4EDlGVnHdS6xQ4niFs+NO2Rzl+KSF7pUhUqYLlPh3sP19Pe+VZy29NX2v50JrRW/nywulBQyAAAOVJ6RdVznEjuUKG7x3LhDNnfdfsJSpU3FS5+UVAHS1fNVfqZ6E73+b7psha4p5tacjRs+duV+t7Pv+mVt/vokt6cAAEihPCPruM4ldihR3OK5cYds7lRm9B6ymJ7pUlFT4dJLj/o3UxWvyfTf6FOQTRSxfbT2E4/cP3Gb+lk1p5ABAHCg8oys4zqX2KFEcYvnxh2yc4He06UCt+my9xQnnvDK8WLUC3q2Ln7pcvKV/dvG7SkAAFIoz806rnOJHUoUt3hu3CE7KFR89OzTn993d3H3rX84/pKhXrp8xbyXTxSkflAJdD9vG7k9BQBACuWZWcd1LrFDieIWz407ZNvkc5/6xPilKkTX+JLXLD6pOOJlL50oQDlq8xv5Y25PAQCQQnle1nGdS+xQorjFc+MO2TbRG/XLu7p19KnLH/6nr9nfqU3cngIAIIXyvKzjOpfYoURxi+fGHbJtctsN10yUnLZZ+9YLir1/tcv+Xm3h9hQAACmUZ2Ud17nEDiWKWzw37pBtk+/8yR0TBaeNeFM/AABeeU7WcZ1L7FCiuMVz4w7ZNtHLfuVd3Vpf+fzN9vdqC7enAABIoTwn67jOJXYoUdziuXGHbJvoJb8mrx3WNF6yBADAK8/JOq5ziR1KFLd4btwh2zbvePPvThScNtEnQt3v0yZuTwEAkEJ5VtZxnUvsUKK4xXPjDtm2ueszN0yUnDbRNwO436dN3J4CACCF8qys4zqX2KFEcYvnxh2ybfPjbQ8UL3vpSyaKThv8k0MOKb75pc/Z36dN3J4CACCF8rys4zqX2KFEcYvnxh2ybXT2Ga+bKDttMAgvV4rbUwAApFCel3Vc5xI7lChu8dy4Q7aN7vncTcXzf/M3JwpP7u68+Xr7e7SN21MAAKRQnpd1XOcSO5QobvHcuEO2rd587usnCk/OFsw/2v78beT2FAAAKZRnZh3XucQOJYpbPDfukG2r7371zuLII14+UXxy9FuHHlp84bN/YH/+NnJ7CgCAFMpzs47rXGKHEsUtnht3yLaZPrlY3vXZ0pegu5+7rdyeAgAghfLcrOM6l9ihRHGL58Ydsm32lzu+U1xwzlkTBSgnw69eXOx+5Bv2524rt6cAAEihPDvruM4ldihR3OK5cYds2/3t7m3FK+a9fKII5eCQQ55XfOvu2+3P22ZuTwEAkEJ5ftZxnUvsUKK4xXPjDtlBcP8XbytedfzCiULUTyqHn//0tfbnbDu3pwAASKE8Q+u4ziV2KFHc4rlxh+ygePjeu4oXvfAFE8WoH/TM2J/c/m/tzzcI3J4CACCF8hyt4zqX2KFEcYvnxh2yg+Tp732rOH7hsRMFqZcOf/FhxTe+cKv9uQaF21MAAKRQnqV1XOcSO5QobvHcuEN20DzxyP3F2rdeMFGUekHXRPuzr33R/jyDxO2pXln2tluK44fXFEMLFxfz5s0DACSkx9bjTj2vWLrmBvsY3AvleVrHdS6xQ4niFs+NO2QH0XO/eKq47qrR8Wetyj9NY/QS5e998OLx23M/x6Bxe6oXTlq53j6AAADSUzFzj8VNK8/VOq5ziR1KFLd4btwhO8h02YktH7qkmH/0KyZKVApHvOylxfvf84458axYzO2ppul/rbkHDABAc0459yr7mNyk8nyt4zqX2KFEcYvnxh2yc4EujaGLyA4ddeREqZqJl77kt4tL3vXW8eufudsZdG5PNU3/S809WAAAmnPMouX2MblJ5Tlbx3UusUOJ4hbPjTtk5xq98f+Gj11ZjJy+fPyZrvJPd1D61OZrFp9UfHjDZcXYN++x680lbk817ahjF9kHCwBAs9xjcpPKc7eO61xihxLFLZ4bd8jiJ8WeXVuLXQ99ffzSGaJnwPb+1S77b+cyt6eatnDJKvtAAQBojt7k7x6TmxTqVBXXucQOJYpbPDfukAW65fZU05as3mwfLAAAzdGHqdxjcpNCnariOpfYoURxi+fGHbJAt9yeatrIhq3FgpNX2AcMAEB6enbszMsfso/JTQp1qorrXGKHEsUtnht3yALdcnuqF1TKTh55H+8nA4AGHXn0guLE09f2pYxJqFNVXOcSO5QobvHcuEMW6JbbUwAApBDqVBXXucQOJYpbPDfukAW65fYUAAAphDpVxXUusUOJ4hbPjTtk5zJ9ulJftaRPVt5x03X7ueszN+z3qcv/9fPddo25xO0pAABSCHWqiutcYocSxS2eG3fIDjIVKRUrXVX/HW/+3WLF8qXjXz7e6fpjB6MLwy4+8YTi3FUri4//3ofGy9pcujyG21MAAKRQnrN1XOcSO5QobvHcuEN2UDwz9mDxlc/fXHxs0weKC845q1h4zNBEkWrSSw7/p8UZpw0XGy5eW/zxzZ8sHv/uffbnGwRuTwEAkEJ5ptZxnUvsUKK4xXPjDtm2evapHcW/u/7q8We+Fsw/eqIg5UBf0fTWN54z/vPpZVH387eR21MAAKRQnp91XOcSO5QobvHcuEO2Tf7iz/60uPnajxRvOvf1489MlXd79l582IuKN5x1RvEH//rK4vvf/or9vdrC7SkAAFIoz8w6rnOJHUoUt3hu3CGbO72Z/nOf+sT4d08ecsjzJopOW5229NXFp6/ZMv6F5+73zZnbUwAApFCekXVc5xI7lChu8dy4QzZXOx/4yviXep+86PiJMjNI/tnLX1a89+1rinvv+Gzxv3/xpL0PcuP2FAAAKZRnYx3XucQOJYpbPDfukM3N/V+8rVj/zrfM+JOQbbTqX7y2uPHjV41/KtTdJ7lwewoAgBTK87CO61xihxLFLZ4bd8jmQpeQ0Mt55V05Zx3+4sPGPyX6q2ces/dRv7k9BQBACuU5WMd1LrFDieIWz407ZPvtT7/078c/Kfm857X//WGpLDlpUXH9Rzdn9wlNt6cAAEihPP/quM4ldihR3OK5cYdsv2z9+peKS9994fizQuXdB+P0Zb8zfumM//6XeTxj5vYUAAAplOdeHde5xA4lils8N+6Q7TVd2X7TZe8pDn3+8yeKB6b2msUnFbse+rq9P3vJ7SkAAFIoz7s6rnOJHUoUt3hu3CHbS3ff+ofFytcOTxQNdO/oI+cVn/zIFX39qia3pwAASKE86+q4ziV2KFHc4rlxh2wv/HjbA8XGSy4qDnvRCycKBmbmXWveWDz6wJft/dw0t6cAAEihPOPquM4ldihR3OK5cYds0/Tl3novVHkXIRG9hPlHN15n7+8muT0FAEAK5flWx3UusUOJ4hbPjTtkm3Ttlo28V6whul91/7r7vSluTwEAkEJ5ttVxnUvsUKK4xXPjDtmmXL35gwPxVUc50/17zZWX2/u/CW5PAQCQQnmu1XGdS+xQorjFc+MO2SbouyfLuwQ9cusN19i/Q2puTwEAkEJ5ntVxnUvsUKK4xXPjDtnUfvTwfcWpS06eKAto3iknv2r8uz/d3yMlt6cAAEihPM/quM4ldihR3OK5cYdsarrGWHl3oMf0ReXu75GS21MAAKRQnmV1XOcSO5QobvHcuEM2pf/69KPF4hNPmCgJ6J0F848ufvbYw/bvkorbUwAApFCeZXVc5xI7lChu8dy4Qzalb919+0RBQO/pwrvu75KK21MAAKRQnmN1XOcSO5QobvHcuEM2pQ9vuGyiHKD3PrjunfbvkorbUwAApFCeY3Vc5xI7lChu8dy4Qzald645b6IcoPfOO/tM+3dJxe0pAABSKM+xOq5ziR1KFLd4btwhm5KuIF/eFeiT4xcea/8uqbg9BQBACuU5Vsd1LrFDieIWz407ZFPiDf39NXTUkfbvkorbUwAApFCeY3Vc5xI7lChu8dy4QzYlCll/UcgAAG1VnmN1XOcSO5QobvHcuEM2JQpZf1HIAABtVZ5jdVznEjuUKG7x3LhDNiUKWX9RyAAAbVWeY3Vc5xI7lChu8dy4QzYlCll/UcgAAG1VnmN1XOcSO5QobvHcuEM2JQpZf1HIAABtVZ5jdVznEjuUKG7x3LhDNiUKWX9RyAAAbVWeY3Vc5xI7lChu8dy4QzYlCll/UcgAAG1VnmN1XOcSO5QobvHcuEM2JQpZf1HIAABtVZ5jdVznEjuUKG7x3LhDNiUKWX9RyAAAbVWeY3Vc5xI7lChu8dy4QzYlCll/UcgAzEXL3nZLcfzwmmJo4eJi3rx5mAHdd8edel6xdM0N9j7uhfIcq+M6l9ihRHGL58YdsilRyPprkAsZD7hA93I4XHvlpJXr7X2AmdPecfd108pzrI7rXGKHEsUtnht3yKZEIeuvQS1kPOACM9evw7UXVDjd74zZO+Xcq+x93qTyHKvjOpfYoURxi+fGHbIpUcj6axALGQ+4wOz143DtBZVN9/ti9o5ZtNze500qz7E6rnOJHUoUt3hu3CGbEoWsvwaxkPGAC8xePw7XXjjq2EX290Ua7j5vUnmO1XGdS+xQorjFc+MO2ZQoZP01iIWMB1wgDff/v9pu4ZJV9nfF7Ol9iO4+b1J5jtVxnUvsUKK4xXPjDtmUKGT9NYiFjAdcYPb6cbj2wpLVm+3vi9nTe3fdfd6k8hyr4zqX2KFEcYvnxh2yKVHI+msQCxkPuMDs9eNw7YWRDVuLBSevsL8zZk4F/szLH7L3eZPKc6yO61xihxLFLZ4bd8imRCHrr0EsZDzgArPTr8O1V/QYcfLI+3h7QwJHHr2gOPH0tX3bL+U5Vsd1LrFDieIWz407ZFOikPXXIBYy4QEXmL5+H67AdJXnWB3XucQOJYpbPDfukE2JQtZfg1rIAACDrzzH6rjOJXYoUdziuXGHbEoUsv6ikAEA2qo8x+q4ziV2KFHc4rlxh2xKFLL+opABANqqPMfquM4ldihR3OK5cYdsSqctffV4KUB/6P53f5dU3J4CACCFUKequM4ldihR3OK5cYcs0C23pwAASCHUqSquc4kdSpRVo2PPuRvIiTtkgW65PQUAQAqhTlVxnUvsUKKUi+2ZvHhu3CELdMvtKQAAUgh1qorrXGKHEqVcjEKGgeb2FAAAKYQ6VcV1LrFDiTKyaWynu4GcuEMW6JbbUwAAzNro2LOhTlVxnUvsUKKUC2494AYy83d//bQ9aIFuuD0FAEACe0KdquI6l9ihRCkXe3DS4tn56e6n7EELdLL35z+2ewoAgNkaGd3+TKhTVVznEjuUKKtGd9zpbiQnO3f8hT1sgU72PPW03VMAACSwNdSpKq5ziR1KlJFNYzeZG8jKV7/5I3vYAp1s+94Tdk8BADBro2P3hTpVxXUusUOJsmrj2GX2RjKy5TOP2cMW6OT6O35g9xQAALM1csXYJ0OdquI6l9ihRBm5YvtKdyM5OefKHePvBXIHLjCVt3z0UbunAACYrbM2jV0U6lQV17nEDiXKis1bj3A3kpv7v73bHrjAwfByJQCgUaPbl4U6VcV1LrFDmZRy0b0H3Ehm9EzHP/wNz5Khe5dcv9PuJQAAUlixYevhoUpVcZ1L7FAmZWTT9t3uhnJz172P24MXmOzBh3h2DADQqL2hRtVxnUvsUCalDZe+EL2X7KldT9oDGNjnlz95ujj/qh12DwEAkMj+l7xQXOcSO5RJ0ZvSzA1l6e0ff5Qr9+Og9LI2L1UCAJo2Mrr9mlCj6rjOJXYok3L2hp3z3Y3lSgcun7rEZCpjukSK2zMAAKSkq1SEGlXHdS6xQzHR5f/dDeZKz5TxlUrYRy9T8swYAKBH9q64euuhoULVcZ1L7FBM2nDF/sn0njKu4o+HH3mC94wBAHpn8hX698V1LrFDMTlz07bz7Y22gJ4t0zWn3GGNwfX4Y08WH/zU9+2eAACgMaPbN4b6tH9c5xI7FBNdS6NsfM/ZG24JXatMX5WjcqaXsNwhjvbShzn0RfO33L1rvIS7PQAAQNNev2nHCaE+7R/XucQO5SApb+SeyTcKAACAysimsZ2hNh0Y17nEDuUgGRndttrdOAAAAEoHe7lScZ1L7FAOEn1iYNXo2LP2BwAAAJjj9B3goTYdGNe5xA5lirTx05YAAAA98GCoSz6uc4kdyhQ5a8PYEvMDAAAAzGn6ZqNQl3xc5xI7lA5py5eNAwAA9MTo2LP2YrBxXOcSO5QOafM1yQAAAJKb6s38++I6l9ihdBGeJQMAACh18+yY4jqX2KF0EZ4lAwAAKHXz7JjiOpfYoXQZniUDAABzWrfPjimuc4kdSpfhWTIAADCndfvsmOI6l9ihTCPlD/PgAT8cAADAgNMrhV0/O6a4ziV2KNOIvkCz7V86DgAAMF0jV2xfGepQd3GdS+xQppmR0e3XuB8UAABgII3uuDPUoO7jOpfYoUwz499xuWlszwE/LAAAwODZO+V3Vh4srnOJHcoMMjK6bbX5gQEAAAbLxrHLQv2ZXlznEjuUGYYvHgcAAANtdOy+UHumH9e5xA5lhtFLl2Up22l/AQAAgHbbs2LD1sND7Zl+XOcSO5RZ5OwNO+eXP/DeSb8AAABAe+mKEqPbl4W6M7O4ziV2KLMMF4wFAAADZToXgD1YXOcSO5QEGdm0/Tb7CwEAALTJbN43Fsd1LrFDSZTyl7jngF8KAACgPbZO62r8U8V1LrFDSZRwfTK+WgkAALTO+FcjzeZN/JPjOpfYoSRM9cnL7bvdLwoAAJCpPTO6+OtUcZ1L7FASR+2SUgYAAFpij64aEWpMurjOJXYoDYRSBgAAWqCZMqa4ziV2KA1Fpaz8RXlPGQAAyM74e8ZSv0wZx3UusUNpMOGN/nz6EgAA5GRr0jfwu7jOJXYoPciq0R13mjsDAACgt0bH7kt2aYup4jqX2KH0KGdtGrto/KsI3J0DAADQtI3bt4Ra0nxc5xI7lB7m9Zt2nDAyuv0ZeycBAAA0YXTs2Vl/N+V04zqX2KH0OOFaZXzVEgAAaJ5eomz6/WIurnOJHUqfcubotgvHG6u78wAAAGZnb5IvCZ9pXOcSO5Q+prpe2dhN5k4EAACYqXsavaRFN3GdS+xQMohe1y2L2U5zhwIAAHRF71MfGd22OtSL/sZ1LrFDySirNo5dxsuYAABgmvbqE5Q9uZxFt3GdS+xQMsv4xWRHt2+kmAEAgA72joxuv6Yvb9rvFNe5xA4l44xfu2zT2J5Jdz4AAJjb8i1i++I6l9ihtCDhE5n3mT8IAACYI8bfb75x7LKsi9i+uM4ldigtiv4A+kPwAQAAAOaG8QvKb9y+5ewNO+eHOtCOuM4ldigtjf4w4b1m95X4SiYAAAbHVr0kedaGsSXh2G9fXOcSO5QBiS6doQatP+KkPyoAAMiYXvkauWLsk7pkRVaflJxNXOcSO5QBjS4IN3LF9pV6Fk0tu/yDq6gJHxIAAKCXqisnjJ/DKl56AkVndOtehpxOXOcSOxRCCCGEEJI2rnOJHQohhBBCCEkb17nEDoUQQgghhKSN61xihwAAAOgdOwQAAEDv2CEAAAB6xw4BAADQO3YIAACA3rFDAAAA9Mj5xf8H4ECuCOVuAHUAAAAASUVORK5CYII=;rotation=-155;strokeWidth=2;fontSize=20;fontStyle=1" parent="1" vertex="1">
          <mxGeometry x="89" y="90" width="155.33" height="100" as="geometry" />
        </mxCell>
        <mxCell id="26" value="" style="endArrow=classic;startArrow=classic;html=1;strokeColor=#0000FF;fontColor=#FF0000;strokeWidth=2;fontSize=20;fontStyle=1" parent="1" edge="1">
          <mxGeometry width="50" height="50" relative="1" as="geometry">
            <mxPoint x="70" y="150" as="sourcePoint" />
            <mxPoint x="110" y="60" as="targetPoint" />
          </mxGeometry>
        </mxCell>
        <mxCell id="27" value="W" style="text;html=1;align=center;verticalAlign=middle;resizable=0;points=[];autosize=1;strokeColor=none;fillColor=none;fontColor=#0000FF;strokeWidth=2;fontSize=20;fontStyle=1" parent="1" vertex="1">
          <mxGeometry x="61" y="72" width="40" height="40" as="geometry" />
        </mxCell>
        <mxCell id="28" value="" style="endArrow=classic;startArrow=classic;html=1;strokeColor=#FF0000;strokeWidth=2;fontSize=20;fontStyle=1" parent="1" edge="1">
          <mxGeometry width="50" height="50" relative="1" as="geometry">
            <mxPoint x="121" y="54" as="sourcePoint" />
            <mxPoint x="260" y="120" as="targetPoint" />
          </mxGeometry>
        </mxCell>
        <mxCell id="29" value="L" style="text;html=1;align=center;verticalAlign=middle;resizable=0;points=[];autosize=1;strokeColor=none;fillColor=none;fontColor=#FF0000;strokeWidth=2;fontSize=20;fontStyle=1" parent="1" vertex="1">
          <mxGeometry x="173" y="53" width="40" height="40" as="geometry" />
        </mxCell>
        <mxCell id="YIn-AIv_8YK0jEi9B2TO-52" value="" style="endArrow=classic;html=1;strokeWidth=2;fontSize=20;fontStyle=1" parent="1" edge="1">
          <mxGeometry width="50" height="50" relative="1" as="geometry">
            <mxPoint x="40" y="320" as="sourcePoint" />
            <mxPoint x="320" y="320" as="targetPoint" />
          </mxGeometry>
        </mxCell>
        <mxCell id="YIn-AIv_8YK0jEi9B2TO-53" value="" style="endArrow=classic;html=1;strokeWidth=2;fontSize=20;fontStyle=1" parent="1" edge="1">
          <mxGeometry width="50" height="50" relative="1" as="geometry">
            <mxPoint x="40" y="320" as="sourcePoint" />
            <mxPoint x="40" y="520" as="targetPoint" />
          </mxGeometry>
        </mxCell>
        <mxCell id="YIn-AIv_8YK0jEi9B2TO-54" value="O" style="text;html=1;align=center;verticalAlign=middle;resizable=0;points=[];autosize=1;strokeColor=none;fillColor=none;strokeWidth=2;fontSize=20;fontStyle=1" parent="1" vertex="1">
          <mxGeometry y="280" width="40" height="40" as="geometry" />
        </mxCell>
        <mxCell id="YIn-AIv_8YK0jEi9B2TO-55" value="x" style="text;html=1;align=center;verticalAlign=middle;resizable=0;points=[];autosize=1;strokeColor=none;fillColor=none;strokeWidth=2;fontSize=20;fontStyle=1" parent="1" vertex="1">
          <mxGeometry x="290" y="320" width="30" height="40" as="geometry" />
        </mxCell>
        <mxCell id="YIn-AIv_8YK0jEi9B2TO-56" value="y" style="text;html=1;align=center;verticalAlign=middle;resizable=0;points=[];autosize=1;strokeColor=none;fillColor=none;strokeWidth=2;fontSize=20;fontStyle=1" parent="1" vertex="1">
          <mxGeometry x="40" y="480" width="30" height="40" as="geometry" />
        </mxCell>
        <mxCell id="YIn-AIv_8YK0jEi9B2TO-57" value="" style="shape=image;verticalLabelPosition=bottom;labelBackgroundColor=default;verticalAlign=top;aspect=fixed;imageAspect=0;image=data:image/png,iVBORw0KGgoAAAANSUhEUgAAAmQAAAGKCAYAAACit13TAAAAAXNSR0IArs4c6QAAAARnQU1BAACxjwv8YQUAAAAJcEhZcwAAFxEAABcRAcom8z8AAC38SURBVHhe7d1/lN11nd/xPUe6siqW9XiUFGECiUAEmqBLJhFpAhMkB1wETRV/Bk344Q9MJoRt8EdBCyusKxSlUHFZUGlZFUVWEYuwWZMJEQ2GBZR115rj7rF0a0+zpz1bzh7bfvt9zfeT+X4yeWXunZnP997P987zdc7jj743fO7MnU/v5+X98b2/8RvfOL8AAABAH9khAAAAescOAQAA0Dt2CAAAgN6xQwAAAPSOHQIAAKB37FAIIYQQQkjauM4ldiiEEEIIISRtXOcSOxRCCCGEEJI2rnOJHcoAZWj40vlDw+svmr/s4jvnL1u/tVQAAICMDa97Zv7w+geHlq3fOLT8khPCkd7+uM4ldigtztCKtYcODb/3wlDA9hzwRwYAAG2zpyxptw0tf+/5OufDkd++uM4ldigtTFXC1t9TNurnJv0RAQDAINn37NnwpfNDDWhHXOcSO5SWRE9jhmfC9h7wxwIAAHPBfUNL1y8L1SDvuM4ldiiZZ2h43Ur9ASb9QQAAwJy1bqdeLQtVIc+4ziV2KJlGrx2Xd/hu/4cAAABYv2do2frLsnyvmetcYoeSWfRUpJqvudMBAACcvUPD667Jqpi5ziV2KJlEb9Yr71BemgQAADMzvO6ZoWXrVodq0d+4ziV2KBlEn57gE5MAACCNi+8cWrH28FAz+hPXucQOpY/RnaWPs/o7EwAAYMae7euzZa5ziR1Kn1K9V2z9s5PuPAAAgIT69GyZ61xih9KH6I13/k4DAABI7lldRivUkN7EdS6xQ+lhhk5de0R5p/AdkwAAoOd0iYxQSZqP61xih9Kj6HXc0t+7OwgAAKAnlq+7KVSTZuM6l9ih9CBDw+u22DsFAACg9+5p/JplrnOJHUrD4f1iAAAgP+t2Nvpmf9e5xA6lwfDMGAAAyJYuJDt86fxQW9LGdS6xQ2koQ8PrL7K/PAAAQD72Dr12/ZJQX9LFdS6xQ2kglDEAANAie5I/U+Y6l9ihJA5lDAAAtM+63Unf6O86l9ihJAxlDAAAtNbw+gdDpZl9XOcSO5REoYwBAIDWG153W6g2s4vrXGKHkiBDyy85Yf6yi39tfzEAAIAW0VUiQsWZeVznEjuUWUavtx572vv/i/uFAAAA2mho+L0Xhqozs7jOJXYos8yC0y//uvtFAAAAWmt4/XOzuhyG61xihzKLzH/t+y+2vwQAAEDrrdsZKs/04zqX2KHMMEOnrj1i/rJL/o//BQAAANpvaNn6jaH6TC+uc4kdygzzypWbHnc/OAAAwMDQS5enrj0i1J/u4zqX2KHMIK86+yMfsD80AADA4LkvVKDu4zqX2KFMM/pm9GNf94F/ND8sAADAQJr2py5d5xI7lGnm+FX/6tvuBwUAABhgz+pJqVCHOsd1LrFDmUaOW331Pz9m+aX/z/yQAAAAg206V/F3nUvsUKaR41dt+Zn9AQEAAOaAoeFL54daNHVc5xI7lC5zyptueqv7wQAAAOaM5etuCtVo6rjOJXYoXWbRWR/h65EAAMDc1u1lMFznEjuULsKzYwAAAJWuLhbrOpfYoXSRE8/5xM/dDwQAADAH6ROXh4aa5OM6l9ihdMiZl35n6TGvvdT9MAAAAHNSx+uSuc4ldigdsuRNNz3ifhAAAIC5a93uUJV8XOcSO5QpsmLz1iOOG7ny//ofBAAAYO4aWrZudahMB8Z1LrFDmSLL3/Pl33c/AAAAANbfEyrTgXGdS+xQpsjiC2581tw4AADAnDe0bN3fh8p0YFznEjuUg+SsDWNLjjvjCvsDAAAAQG/uX7cyVKf94zqX2KEcJKdd/I1b3Q0DAACgUhaya0J12j+uc4kdykHy6n95y/90NwwAAIBg+fonQ3XaP65ziR2KycgV21cuOvuj/oYBAAAwYWjF2sNDharjOpfYoZic8aFHruVisAAAAJ0NDa+/KFSoOq5ziR2KyWkXf+2H7gYBAAAw2cV3hgpVx3UusUOZlBVXbz30NRd+7tf+BgEAALC/i/9bqFF1XOcSO5RJGRndtvqkN/y+uTEAAAA4Q8OXzg9VqorrXGKHMikjm8ZueuWKUXtjAAAAONAB1yNznUvsUCblzI1bv+duCAAAAN7Q8HsvDFWqiutcYocyKadf9q1fuRsCAADAQZx26eZQpaq4ziV2KFFWbNh6+PKL/qO/IQAAAFivXLnxj0OdquI6l9ihRFk1un3Z77ztdntDAAAA8I47c/OfhzpVxXUusUOJcubotguXvOlGe0MAAADwXrnyip+GOlXFdS6xQ4kycsXYJ1+1+mp7QwAAAPAWrtz4P0KdquI6l9ihRFk1uuNOvsMSAABgeo593Qf+MdSpKq5ziR1KlFWjY/dRyAAAAKYv1KkqrnOJHUqUVZvGtnJRWAAAgOkLdaqK61xihxKFQgYAADAzoU5VcZ1L7FCilIVsD4UMAABg+kKdquI6l9ihRFEhczcAAACAqYU6VcV1LrFDiVIWsr3uBgAAADC1UKequM4ldihRykJmbwAAAABTC3WqiutcYocShUIGAAAwM6FOVXGdS+xQolDIAAAAZibUqSquc4kdShQKGQAAwMyEOlXFdS6xQ4lCIQMAAJiZUKequM4ldihRKGQAAAAzE+pUFde5xA4lCoUMAABgZkKdquI6l9ihRKGQAQAAzEyoU1Vc5xI7lCgUMgAAgJkJdaqK61xihxJFhQwAAADTF+pUFde5xA4lilscAAAAnYU6VcV1LrFDieIWBwAAQGehTlVxnUvsUKK4xQEAANBZqFNVXOcSO5QobnEAAAB0FupUFde5xA4lilscAAAAnYU6VcV1LrFDieIWBwAAQGehTlVxnUvsUKK4xQEAANBZqFNVXOcSO5QobnEAAAB0FupUFde5xA4lilscAAAAnYU6VcV1LrFDieIWBwAAQGehTlVxnUvsUKK4xQEAANBZqFNVXOcSO5QobnEAAAB0FupUFde5xA4lilscAAAAnYU6VcV1LrFDieIWBwAAQGehTlVxnUvsUKK4xQEAANBZqFNVXOcSO5QobnEAAAB0FupUFde5xA4lilscAAAAnYU6VcV1LrFDieIWBwAAQGehTlVxnUvsUKK4xQEAANBZqFNVXOcSO5QobnEAAAB0FupUFde5xA4lilscAAAAnYU6VcV1LrFDieIWBwAAQGehTlVxnUvsUKK4xQEAANBZqFNVXOcSO5QobnEAAAB0FupUFde5xA4lilscAAAAnYU6VcV1LrFDieIWBwAAQGehTlVxnUvsUKK4xQEAANBZqFNVXOcSO5QobnEAAAB0FupUFde5xA4lilscAAAAnYU6VcV1LrFDieIWBwAAQGehTlVxnUvsUKK4xQEAANBZqFNVXOcSO5QobnEAAAB0FupUFde5xA4lilscAAAAnYU6VcV1LrFDieIWBwAAQGehTlVxnUvsUKK4xQEAANBZqFNVXOcSO5QobnEAAAB0FupUFde5xA4lilscAAAAnYU6VcV1LrFDieIWBwAAQGehTlVxnUvsUKK4xQEAANBZqFNVXOcSO5QobnEAAAB0FupUFde5xA4lilscAAAAnYU6VcV1LrFDieIWBwAAQGehTlVxnUvsUKK4xQEAANBZqFNVXOcSO5QobnEAAAB0FupUFde5xA4lilscAAAAnYU6VcV1LrFDieIWBwAAQGehTlVxnUvsUKK4xQEAANBZqFNVXOcSO5QobnEAAAB0FupUFde5xA4lilscAAAAnYU6VcV1LrFDieIWBwAAQGehTlVxnUvsUKK4xQEAANBZqFNVXOcSO5QobnEAAAB0FupUFde5xA4lilscAAAAnYU6VcV1LrFDieIWBwAAQGehTlVxnUvsUKK4xQEAANBZqFNVXOcSO5QobnEAAAB0FupUFde5xA4lilscAAAAnYU6VcV1LrFDieIWBwAAQGehTlVxnUvsUKK4xQEAANBZqFNVXOcSO5QobnEAAAB0FupUFde5xA4lilscAAAAnYU6VcV1LrFDieIWBwAAQGehTlVxnUvsUKK4xQEAANBZqFNVXOcSO5QobnEAAAB0FupUFde5xA4lilu8zd7+8UeLW+7eVTz40BPF4489Oe4f/ubHxa9/+RO01L6/48OPPFHcfs+u4pLrd9q/PQAAvRbqVBXXucQOJYpbvI1UwvY89bQ90DF4fvmTp4u77n28OP+qHXY/AADQC6FOVXGdS+xQorjF2+Rjt/5g/HB2hzYG39/99dPFjV/4od0bAAA0LdSpKq5ziR1KFLd4G5xz5Y7i/m/vtoc05p5t33uCZ8sAAD0X6lQV17nEDiWKWzx3Onif2vWkPZgxd+kla72H0O0ZAACaEOpUFde5xA4lils8Z3pmjDKGg9HL1zxTBgDolVCnqrjOJXYoUdziOdOnJ91BDOyjT2S6vQMAQGqhTlVxnUvsUKK4xXP1b27/gT2Agcn0qVu3hwAASCnUqSquc4kdShS3eI70UqU+UecOX2AyXXvuLR/l/WQAgGaFOlXFdS6xQ4niFs+RnvFwBy9wMF/95o/sXgIAIJVQp6q4ziV2KFHc4jniWmOYLj1LpmdW3X4CACCFUKequM4ldihR3OK5uejaR+2BC3Sy5TOP2T0FAEAKoU5VcZ1L7FCiuMVzo6/IcYct0Ik+lev2FAAAKYQ6VcV1LrFDieIWz42uwu4OW6CTn+5+yu4pAABSCHWqiutcYocSxS2eG11Xyh22QCd676HbUwAApBDqVBXXucQOJYpbPDe8oR+z4fYUAAAphDpVxXUusUOJ4hbPjT4t5w5aoBtuTwEAkEKoU1Vc5xI7lChu8dy4QxbolttTAACkEOpUFde5xA4lils8N+6QBbrl9hQAACmEOlXFdS6xQ4niFs+NO2SBbrk9BQBACqFOVXGdS+xQorjFc+MOWaBbbk8BAJBCqFNVXOcSO5QobvHcuEMW6JbbUwAApBDqVBXXucQOJYpbPDfukAW65fYUZmbZ224pjh9eUwwtXFzMmzcPAPpKj0XHnXpesXTNDfYxqxdCnariOpfYoURxi+fGHbJAt9yewvSdtHK9fUAEgByomLnHrqaFOlXFdS6xQ4niFs+NO2SBbrk9henR//p0D4AAkJNTzr3KPoY1KdSpKq5ziR1KFLd4btwhC3TL7SlMj/6Xp3vwA4CcHLNouX0Ma1KoU1Vc5xI7lChu8dy4QxbolttTmJ6jjl1kH/wAIDfuMaxJoU5VcZ1L7FCiuMVz4w5ZoFtuT2F6Fi5ZZR/4ACAnepO/ewxrUqhTVVznEjuUKG7x3LhDFuiW21OYniWrN9sHPwDIiT585B7DmhTqVBXXucQOJYpbPDfukAW65fYUpmdkw9Ziwckr7AMgAORAz46deflD9jGsSaFOVXGdS+xQorjFc+MOWaBbbk9h+lTKTh55H+8nA5CVI49eUJx4+tq+lDEJdaqK61xihxLFLZ4bd8gC3XJ7CgCAFEKdquI6l9ihRHGL58YdskC33J4CACCFUKequM4ldihR3OK5cYcs0C23pwAASCHUqSquc4kdShS3eG7cIQt0y+0pAABSCHWqiutcYocSxS2eG3fIAt1yewoAgBRCnariOpfYoURxi+fGHbJAt9yeAgAghVCnqrjOJXYoUdziuXGHLNAtt6cAAEgh1KkqrnOJHUoUt3hu3CELdMvtKQAAUgh1qorrXGKHEsUtnht3yALdcnsKAIAUQp2q4jqX2KFEcYvnxh2yQLfcngIAIIVQp6q4ziV2KFHc4rlxhyzQLbenAABIIdSpKq5ziR1KFLd4btwhC3TL7SkAAFIIdaqK61xihxLFLZ4bd8gC3XJ7CgCAFEKdquI6l9ihRHGL58YdskC33J4CACCFUKequM4ldihR3OK5cYcs0C23pwAASCHUqSquc4kdShS3eG7cIQt0y+0pAABSCHWqiutcYocSxS2eG3fIAt1yewoAgBRCnariOpfYoURxi+fGHbJAt9yeAgAghVCnqrjOJXYoUdziuXGHLNAtt6cAAEgh1KkqrnOJHUoUt3hu3CELdMvtKQAAUgh1qorrXGKHEsUtnht3yALdcnsKAIAUQp2q4jqX2KFEcYvnxh2yQLfcngIAIIVQp6q4ziV2KFHc4rlxhyzQLbenAABIIdSpKq5ziR1KFLd4btwhC3TL7SkAAFIIdaqK61xihxLFLZ4bd8gC3XJ7CgCAFEKdquI6l9ihRHGL58YdskC33J4CACCFUKequM4ldihR3OK5cYcs0C23pwAASCHUqSquc4kdShS3eG7cIQt0y+0pAABSCHWqiutcYocSxS2eG3fIAt1yewoAgBRCnariOpfYoURxi+fGHbJAt9yeAgAghVCnqrjOJXYoUdziuXGHLNAtt6cAAEgh1KkqrnOJHUoUt3hu3CELdMvtKQAAUgh1qorrXGKHEsUtnht3yALdcnsKAIAUQp2q4jqX2KFEcYvnxh2yQLfcngIAIIVQp6q4ziV2KFHc4rlxhyzQLbenAABIIdSpKq5ziR1KFLd4btwhOxf96pnHil0Pfb24947PjrvjpuuKh++9y/5b1NyeAgAghVCnqrjOJXYoUdziuXGH7FygAqbitWL50uLwFx+mv9uU3rh6pPj0NVvG/zu33lzl9hQAACmU528d17nEDiWKWzw37pAdVCpTeuZr8YkndFXCDkYlTuu425hr3J7qlWVvu6U4fnhNMbRwcTFv3jwAQEJ6bD3u1POKpWtusI/BvVCeuXVc5xI7lChu8dy4Q3bQqIh96OJ3z6qEOUNHHTnni5nbU71w0sr19gEEAJCeipl7LG5aedbWcZ1L7FCiuMVz4w7ZQaKXJVWcyj9HY/SMm95/5m5/0Lk91TT9rzX3gAEAaM4p515lH5ObVJ6xdVznEjuUKG7x3LhDdhCoIKkolX+GntGzcHo2bi69z8ztqabpf6m5BwsAQHOOWbTcPiY3qTxb67jOJXYoUdziuXGHbNvpWbHUL0/OhN5rppL2s+9/1/6cg8DtqaYddewi+2ABAGiWe0xuUnmW1nGdS+xQorjFc+MO2TbTJyFzKGOTvfstF9ift+3cnmrawiWr7AMFAKA5epO/e0xuUnl+1nGdS+xQorjFc+MO2bbSG+xzLGP7DOJ7zdyeatqS1ZvtgwUAoDn6MJV7TG5SeXbWcZ1L7FCiuMVz4w7ZNtLLgjmXsX30Mw5SKXN7qmkjG7YWC05eYR8wAADp6dmxMy9/yD4mN6k8N+u4ziV2KFHc4rlxh2wb6f1a5V3eCoNUytye6gWVspNH3sf7yQCgQUcevaA48fS1fSljUp6ZdVznEjuUKG7x3LhDtm30vrHy7m4VXYrD/S5t4/YUAAAplOdlHde5xA4lils8N+6QbRNdYqINL1U6KpLud2oTt6cAAEihPCvruM4ldihR3OK5cYdsm3xs0wcmCk4/qAzu+zJyXeLC/ZuD0X/rfqc2cXsKAIAUyrOyjutcYocSxS2eG3fItkW/nx3T+9YmX2NM/29d4sL9e6ft1yhzewoAgBTKc7KO61xihxLFLZ4bd8i2Rb/eO6YSqNue6or83T5z1/aXLd2eAgAghfKcrOM6l9ihRHGL58Ydsm3xxtUjE8WmV/a9RBn/HCpm1101Wvzt7m37zR++9y67Rkwvc8b/Tdu4PQUAQArlOVnHdS6xQ4niFs+NO2TboB8vV7qXKL//7a9MfHn5oc9//vh7yeL/uy5vMdXPqVIZ//u2cXsKAIAUynOyjutcYocSxS2eG3fItoGKTnkX98S+lygn/wyaHXLI8w749x/ecNl+/04lbvK/2Udrx/+2bdyeAgAghfKcrOM6l9ihRHGL58Ydsm2glw3Lu7hx7uuOHn3gy8W71rzR/vt93nfR24v//INHJv6bqV6+jNduG7enAABIoTwj67jOJXYoUdziuXGHbBv04g39+rTk5Dfuf+MLtxYvfclv238/mV7ifO4XT038twe7LMZUHw7IndtTAACkUJ6RdVznEjuUKG7x3LhDtg2aLGTujft6tmvz+9cVL3zBb9n/5mC2fOiS/dZxX/HU5q9RcnsKAIAUyjOyjutcYocSxS2eG3fItkEThUxFzD0r9sB/uL14w1ln2P+mk8Ne9MLij26s3+jvPoyglzPj22sTt6cAAEihPCPruM4ldihR3OK5cYdsG6S85IUKktZzz1TdfO1Hihe98AX2v+uWXuLcs2vrxJqT3/9GIQMA4EDlGVnHdS6xQ4niFs+NO2Rzl+KSF7pUhUqYLlPh3sP19Pe+VZy29NX2v50JrRW/nywulBQyAAAOVJ6RdVznEjuUKG7x3LhDNnfdfsJSpU3FS5+UVAHS1fNVfqZ6E73+b7psha4p5tacjRs+duV+t7Pv+mVt/vokt6cAAEihPCPruM4ldihR3OK5cYds7lRm9B6ymJ7pUlFT4dJLj/o3UxWvyfTf6FOQTRSxfbT2E4/cP3Gb+lk1p5ABAHCg8oys4zqX2KFEcYvnxh2yc4He06UCt+my9xQnnvDK8WLUC3q2Ln7pcvKV/dvG7SkAAFIoz806rnOJHUoUt3hu3CE7KFR89OzTn993d3H3rX84/pKhXrp8xbyXTxSkflAJdD9vG7k9BQBACuWZWcd1LrFDieIWz407ZNvkc5/6xPilKkTX+JLXLD6pOOJlL50oQDlq8xv5Y25PAQCQQnle1nGdS+xQorjFc+MO2TbRG/XLu7p19KnLH/6nr9nfqU3cngIAIIXyvKzjOpfYoURxi+fGHbJtctsN10yUnLZZ+9YLir1/tcv+Xm3h9hQAACmUZ2Ud17nEDiWKWzw37pBtk+/8yR0TBaeNeFM/AABeeU7WcZ1L7FCiuMVz4w7ZNtHLfuVd3Vpf+fzN9vdqC7enAABIoTwn67jOJXYoUdziuXGHbJvoJb8mrx3WNF6yBADAK8/JOq5ziR1KFLd4btwh2zbvePPvThScNtEnQt3v0yZuTwEAkEJ5VtZxnUvsUKK4xXPjDtm2ueszN0yUnDbRNwO436dN3J4CACCF8qys4zqX2KFEcYvnxh2ybfPjbQ8UL3vpSyaKThv8k0MOKb75pc/Z36dN3J4CACCF8rys4zqX2KFEcYvnxh2ybXT2Ga+bKDttMAgvV4rbUwAApFCel3Vc5xI7lChu8dy4Q7aN7vncTcXzf/M3JwpP7u68+Xr7e7SN21MAAKRQnpd1XOcSO5QobvHcuEO2rd587usnCk/OFsw/2v78beT2FAAAKZRnZh3XucQOJYpbPDfukG2r7371zuLII14+UXxy9FuHHlp84bN/YH/+NnJ7CgCAFMpzs47rXGKHEsUtnht3yLaZPrlY3vXZ0pegu5+7rdyeAgAghfLcrOM6l9ihRHGL58Ydsm32lzu+U1xwzlkTBSgnw69eXOx+5Bv2524rt6cAAEihPDvruM4ldihR3OK5cYds2/3t7m3FK+a9fKII5eCQQ55XfOvu2+3P22ZuTwEAkEJ5ftZxnUvsUKK4xXPjDtlBcP8XbytedfzCiULUTyqHn//0tfbnbDu3pwAASKE8Q+u4ziV2KFHc4rlxh+ygePjeu4oXvfAFE8WoH/TM2J/c/m/tzzcI3J4CACCF8hyt4zqX2KFEcYvnxh2yg+Tp732rOH7hsRMFqZcOf/FhxTe+cKv9uQaF21MAAKRQnqV1XOcSO5QobvHcuEN20DzxyP3F2rdeMFGUekHXRPuzr33R/jyDxO2pXln2tluK44fXFEMLFxfz5s0DACSkx9bjTj2vWLrmBvsY3AvleVrHdS6xQ4niFs+NO2QH0XO/eKq47qrR8Wetyj9NY/QS5e998OLx23M/x6Bxe6oXTlq53j6AAADSUzFzj8VNK8/VOq5ziR1KFLd4btwhO8h02YktH7qkmH/0KyZKVApHvOylxfvf84458axYzO2ppul/rbkHDABAc0459yr7mNyk8nyt4zqX2KFEcYvnxh2yc4EujaGLyA4ddeREqZqJl77kt4tL3vXW8eufudsZdG5PNU3/S809WAAAmnPMouX2MblJ5Tlbx3UusUOJ4hbPjTtk5xq98f+Gj11ZjJy+fPyZrvJPd1D61OZrFp9UfHjDZcXYN++x680lbk817ahjF9kHCwBAs9xjcpPKc7eO61xihxLFLZ4bd8jiJ8WeXVuLXQ99ffzSGaJnwPb+1S77b+cyt6eatnDJKvtAAQBojt7k7x6TmxTqVBXXucQOJYpbPDfukAW65fZU05as3mwfLAAAzdGHqdxjcpNCnariOpfYoURxi+fGHbJAt9yeatrIhq3FgpNX2AcMAEB6enbszMsfso/JTQp1qorrXGKHEsUtnht3yALdcnuqF1TKTh55H+8nA4AGHXn0guLE09f2pYxJqFNVXOcSO5QobvHcuEMW6JbbUwAApBDqVBXXucQOJYpbPDfukAW65fYUAAAphDpVxXUusUOJ4hbPjTtk5zJ9ulJftaRPVt5x03X7ueszN+z3qcv/9fPddo25xO0pAABSCHWqiutcYocSxS2eG3fIDjIVKRUrXVX/HW/+3WLF8qXjXz7e6fpjB6MLwy4+8YTi3FUri4//3ofGy9pcujyG21MAAKRQnrN1XOcSO5QobvHcuEN2UDwz9mDxlc/fXHxs0weKC845q1h4zNBEkWrSSw7/p8UZpw0XGy5eW/zxzZ8sHv/uffbnGwRuTwEAkEJ5ptZxnUvsUKK4xXPjDtm2evapHcW/u/7q8We+Fsw/eqIg5UBf0fTWN54z/vPpZVH387eR21MAAKRQnp91XOcSO5QobvHcuEO2Tf7iz/60uPnajxRvOvf1489MlXd79l582IuKN5x1RvEH//rK4vvf/or9vdrC7SkAAFIoz8w6rnOJHUoUt3hu3CGbO72Z/nOf+sT4d08ecsjzJopOW5229NXFp6/ZMv6F5+73zZnbUwAApFCekXVc5xI7lChu8dy4QzZXOx/4yviXep+86PiJMjNI/tnLX1a89+1rinvv+Gzxv3/xpL0PcuP2FAAAKZRnYx3XucQOJYpbPDfukM3N/V+8rVj/zrfM+JOQbbTqX7y2uPHjV41/KtTdJ7lwewoAgBTK87CO61xihxLFLZ4bd8jmQpeQ0Mt55V05Zx3+4sPGPyX6q2ces/dRv7k9BQBACuU5WMd1LrFDieIWz407ZPvtT7/078c/Kfm857X//WGpLDlpUXH9Rzdn9wlNt6cAAEihPP/quM4ldihR3OK5cYdsv2z9+peKS9994fizQuXdB+P0Zb8zfumM//6XeTxj5vYUAAAplOdeHde5xA4lils8N+6Q7TVd2X7TZe8pDn3+8yeKB6b2msUnFbse+rq9P3vJ7SkAAFIoz7s6rnOJHUoUt3hu3CHbS3ff+ofFytcOTxQNdO/oI+cVn/zIFX39qia3pwAASKE86+q4ziV2KFHc4rlxh2wv/HjbA8XGSy4qDnvRCycKBmbmXWveWDz6wJft/dw0t6cAAEihPOPquM4ldihR3OK5cYds0/Tl3novVHkXIRG9hPlHN15n7+8muT0FAEAK5flWx3UusUOJ4hbPjTtkm3Ttlo28V6whul91/7r7vSluTwEAkEJ5ttVxnUvsUKK4xXPjDtmmXL35gwPxVUc50/17zZWX2/u/CW5PAQCQQnmu1XGdS+xQorjFc+MO2SbouyfLuwQ9cusN19i/Q2puTwEAkEJ5ntVxnUvsUKK4xXPjDtnUfvTwfcWpS06eKAto3iknv2r8uz/d3yMlt6cAAEihPM/quM4ldihR3OK5cYdsarrGWHl3oMf0ReXu75GS21MAAKRQnmV1XOcSO5QobvHcuEM2pf/69KPF4hNPmCgJ6J0F848ufvbYw/bvkorbUwAApFCeZXVc5xI7lChu8dy4Qzalb919+0RBQO/pwrvu75KK21MAAKRQnmN1XOcSO5QobvHcuEM2pQ9vuGyiHKD3PrjunfbvkorbUwAApFCeY3Vc5xI7lChu8dy4Qzald645b6IcoPfOO/tM+3dJxe0pAABSKM+xOq5ziR1KFLd4btwhm5KuIF/eFeiT4xcea/8uqbg9BQBACuU5Vsd1LrFDieIWz407ZFPiDf39NXTUkfbvkorbUwAApFCeY3Vc5xI7lChu8dy4QzYlCll/UcgAAG1VnmN1XOcSO5QobvHcuEM2JQpZf1HIAABtVZ5jdVznEjuUKG7x3LhDNiUKWX9RyAAAbVWeY3Vc5xI7lChu8dy4QzYlCll/UcgAAG1VnmN1XOcSO5QobvHcuEM2JQpZf1HIAABtVZ5jdVznEjuUKG7x3LhDNiUKWX9RyAAAbVWeY3Vc5xI7lChu8dy4QzYlCll/UcgAAG1VnmN1XOcSO5QobvHcuEM2JQpZf1HIAABtVZ5jdVznEjuUKG7x3LhDNiUKWX9RyAAAbVWeY3Vc5xI7lChu8dy4QzYlCll/UcgAzEXL3nZLcfzwmmJo4eJi3rx5mAHdd8edel6xdM0N9j7uhfIcq+M6l9ihRHGL58YdsilRyPprkAsZD7hA93I4XHvlpJXr7X2AmdPecfd108pzrI7rXGKHEsUtnht3yKZEIeuvQS1kPOACM9evw7UXVDjd74zZO+Xcq+x93qTyHKvjOpfYoURxi+fGHbIpUcj6axALGQ+4wOz143DtBZVN9/ti9o5ZtNze500qz7E6rnOJHUoUt3hu3CGbEoWsvwaxkPGAC8xePw7XXjjq2EX290Ua7j5vUnmO1XGdS+xQorjFc+MO2ZQoZP01iIWMB1wgDff/v9pu4ZJV9nfF7Ol9iO4+b1J5jtVxnUvsUKK4xXPjDtmUKGT9NYiFjAdcYPb6cbj2wpLVm+3vi9nTe3fdfd6k8hyr4zqX2KFEcYvnxh2yKVHI+msQCxkPuMDs9eNw7YWRDVuLBSevsL8zZk4F/szLH7L3eZPKc6yO61xihxLFLZ4bd8imRCHrr0EsZDzgArPTr8O1V/QYcfLI+3h7QwJHHr2gOPH0tX3bL+U5Vsd1LrFDieIWz407ZFOikPXXIBYy4QEXmL5+H67AdJXnWB3XucQOJYpbPDfukE2JQtZfg1rIAACDrzzH6rjOJXYoUdziuXGHbEoUsv6ikAEA2qo8x+q4ziV2KFHc4rlxh2xKFLL+opABANqqPMfquM4ldihR3OK5cYdsSqctffV4KUB/6P53f5dU3J4CACCFUKequM4ldihR3OK5cYcs0C23pwAASCHUqSquc4kdSpRVo2PPuRvIiTtkgW65PQUAQAqhTlVxnUvsUKKUi+2ZvHhu3CELdMvtKQAAUgh1qorrXGKHEqVcjEKGgeb2FAAAKYQ6VcV1LrFDiTKyaWynu4GcuEMW6JbbUwAAzNro2LOhTlVxnUvsUKKUC2494AYy83d//bQ9aIFuuD0FAEACe0KdquI6l9ihRCkXe3DS4tn56e6n7EELdLL35z+2ewoAgNkaGd3+TKhTVVznEjuUKKtGd9zpbiQnO3f8hT1sgU72PPW03VMAACSwNdSpKq5ziR1KlJFNYzeZG8jKV7/5I3vYAp1s+94Tdk8BADBro2P3hTpVxXUusUOJsmrj2GX2RjKy5TOP2cMW6OT6O35g9xQAALM1csXYJ0OdquI6l9ihRBm5YvtKdyM5OefKHePvBXIHLjCVt3z0UbunAACYrbM2jV0U6lQV17nEDiXKis1bj3A3kpv7v73bHrjAwfByJQCgUaPbl4U6VcV1LrFDmZRy0b0H3Ehm9EzHP/wNz5Khe5dcv9PuJQAAUlixYevhoUpVcZ1L7FAmZWTT9t3uhnJz172P24MXmOzBh3h2DADQqL2hRtVxnUvsUCalDZe+EL2X7KldT9oDGNjnlz95ujj/qh12DwEAkMj+l7xQXOcSO5RJ0ZvSzA1l6e0ff5Qr9+Og9LI2L1UCAJo2Mrr9mlCj6rjOJXYok3L2hp3z3Y3lSgcun7rEZCpjukSK2zMAAKSkq1SEGlXHdS6xQzHR5f/dDeZKz5TxlUrYRy9T8swYAKBH9q64euuhoULVcZ1L7FBM2nDF/sn0njKu4o+HH3mC94wBAHpn8hX698V1LrFDMTlz07bz7Y22gJ4t0zWn3GGNwfX4Y08WH/zU9+2eAACgMaPbN4b6tH9c5xI7FBNdS6NsfM/ZG24JXatMX5WjcqaXsNwhjvbShzn0RfO33L1rvIS7PQAAQNNev2nHCaE+7R/XucQO5SApb+SeyTcKAACAysimsZ2hNh0Y17nEDuUgGRndttrdOAAAAEoHe7lScZ1L7FAOEn1iYNXo2LP2BwAAAJjj9B3goTYdGNe5xA5lirTx05YAAAA98GCoSz6uc4kdyhQ5a8PYEvMDAAAAzGn6ZqNQl3xc5xI7lA5py5eNAwAA9MTo2LP2YrBxXOcSO5QOafM1yQAAAJKb6s38++I6l9ihdBGeJQMAACh18+yY4jqX2KF0EZ4lAwAAKHXz7JjiOpfYoXQZniUDAABzWrfPjimuc4kdSpfhWTIAADCndfvsmOI6l9ihTCPlD/PgAT8cAADAgNMrhV0/O6a4ziV2KNOIvkCz7V86DgAAMF0jV2xfGepQd3GdS+xQppmR0e3XuB8UAABgII3uuDPUoO7jOpfYoUwz499xuWlszwE/LAAAwODZO+V3Vh4srnOJHcoMMjK6bbX5gQEAAAbLxrHLQv2ZXlznEjuUGYYvHgcAAANtdOy+UHumH9e5xA5lhtFLl2Up22l/AQAAgHbbs2LD1sND7Zl+XOcSO5RZ5OwNO+eXP/DeSb8AAABAe+mKEqPbl4W6M7O4ziV2KLMMF4wFAAADZToXgD1YXOcSO5QEGdm0/Tb7CwEAALTJbN43Fsd1LrFDSZTyl7jngF8KAACgPbZO62r8U8V1LrFDSZRwfTK+WgkAALTO+FcjzeZN/JPjOpfYoSRM9cnL7bvdLwoAAJCpPTO6+OtUcZ1L7FASR+2SUgYAAFpij64aEWpMurjOJXYoDYRSBgAAWqCZMqa4ziV2KA1Fpaz8RXlPGQAAyM74e8ZSv0wZx3UusUNpMOGN/nz6EgAA5GRr0jfwu7jOJXYoPciq0R13mjsDAACgt0bH7kt2aYup4jqX2KH0KGdtGrto/KsI3J0DAADQtI3bt4Ra0nxc5xI7lB7m9Zt2nDAyuv0ZeycBAAA0YXTs2Vl/N+V04zqX2KH0OOFaZXzVEgAAaJ5eomz6/WIurnOJHUqfcubotgvHG6u78wAAAGZnb5IvCZ9pXOcSO5Q+prpe2dhN5k4EAACYqXsavaRFN3GdS+xQMohe1y2L2U5zhwIAAHRF71MfGd22OtSL/sZ1LrFDySirNo5dxsuYAABgmvbqE5Q9uZxFt3GdS+xQMsv4xWRHt2+kmAEAgA72joxuv6Yvb9rvFNe5xA4l44xfu2zT2J5Jdz4AAJjb8i1i++I6l9ihtCDhE5n3mT8IAACYI8bfb75x7LKsi9i+uM4ldigtiv4A+kPwAQAAAOaG8QvKb9y+5ewNO+eHOtCOuM4ldigtjf4w4b1m95X4SiYAAAbHVr0kedaGsSXh2G9fXOcSO5QBiS6doQatP+KkPyoAAMiYXvkauWLsk7pkRVaflJxNXOcSO5QBjS4IN3LF9pV6Fk0tu/yDq6gJHxIAAKCXqisnjJ/DKl56AkVndOtehpxOXOcSOxRCCCGEEJI2rnOJHQohhBBCCEkb17nEDoUQQgghhKSN61xihwAAAOgdOwQAAEDv2CEAAAB6xw4BAADQO3YIAACA3rFDAAAA9Mj5xf8H4ECuCOVuAHUAAAAASUVORK5CYII=;rotation=-200;strokeWidth=2;fontSize=20;fontStyle=1" parent="1" vertex="1">
          <mxGeometry x="89" y="370" width="155.33" height="100" as="geometry" />
        </mxCell>
        <mxCell id="YIn-AIv_8YK0jEi9B2TO-58" value="" style="endArrow=classic;startArrow=classic;html=1;strokeColor=#0000FF;fontColor=#FF0000;strokeWidth=2;fontSize=20;fontStyle=1" parent="1" edge="1">
          <mxGeometry width="50" height="50" relative="1" as="geometry">
            <mxPoint x="266" y="435" as="sourcePoint" />
            <mxPoint x="230" y="342" as="targetPoint" />
          </mxGeometry>
        </mxCell>
        <mxCell id="YIn-AIv_8YK0jEi9B2TO-59" value="W" style="text;html=1;align=center;verticalAlign=middle;resizable=0;points=[];autosize=1;strokeColor=none;fillColor=none;fontColor=#0000FF;strokeWidth=2;fontSize=20;fontStyle=1" parent="1" vertex="1">
          <mxGeometry x="247" y="361" width="40" height="40" as="geometry" />
        </mxCell>
        <mxCell id="YIn-AIv_8YK0jEi9B2TO-60" value="" style="endArrow=classic;startArrow=classic;html=1;strokeColor=#FF0000;strokeWidth=2;fontSize=20;fontStyle=1" parent="1" edge="1">
          <mxGeometry width="50" height="50" relative="1" as="geometry">
            <mxPoint x="75" y="390" as="sourcePoint" />
            <mxPoint x="217" y="340" as="targetPoint" />
          </mxGeometry>
        </mxCell>
        <mxCell id="YIn-AIv_8YK0jEi9B2TO-61" value="L" style="text;html=1;align=center;verticalAlign=middle;resizable=0;points=[];autosize=1;strokeColor=none;fillColor=none;fontColor=#FF0000;strokeWidth=2;fontSize=20;fontStyle=1" parent="1" vertex="1">
          <mxGeometry x="117" y="330" width="40" height="40" as="geometry" />
        </mxCell>
        <mxCell id="wIwvusdZlKLKtSu7Q3m1-29" value="" style="endArrow=classic;html=1;strokeWidth=2;fontSize=20;fontStyle=1" parent="1" edge="1">
          <mxGeometry width="50" height="50" relative="1" as="geometry">
            <mxPoint x="480" y="320" as="sourcePoint" />
            <mxPoint x="760" y="320" as="targetPoint" />
          </mxGeometry>
        </mxCell>
        <mxCell id="wIwvusdZlKLKtSu7Q3m1-30" value="" style="endArrow=classic;html=1;strokeWidth=2;fontSize=20;fontStyle=1" parent="1" edge="1">
          <mxGeometry width="50" height="50" relative="1" as="geometry">
            <mxPoint x="480" y="320" as="sourcePoint" />
            <mxPoint x="480" y="520" as="targetPoint" />
          </mxGeometry>
        </mxCell>
        <mxCell id="wIwvusdZlKLKtSu7Q3m1-31" value="O" style="text;html=1;align=center;verticalAlign=middle;resizable=0;points=[];autosize=1;strokeColor=none;fillColor=none;strokeWidth=2;fontSize=20;fontStyle=1" parent="1" vertex="1">
          <mxGeometry x="440" y="280" width="40" height="40" as="geometry" />
        </mxCell>
        <mxCell id="wIwvusdZlKLKtSu7Q3m1-32" value="x" style="text;html=1;align=center;verticalAlign=middle;resizable=0;points=[];autosize=1;strokeColor=none;fillColor=none;strokeWidth=2;fontSize=20;fontStyle=1" parent="1" vertex="1">
          <mxGeometry x="730" y="320" width="30" height="40" as="geometry" />
        </mxCell>
        <mxCell id="wIwvusdZlKLKtSu7Q3m1-33" value="y" style="text;html=1;align=center;verticalAlign=middle;resizable=0;points=[];autosize=1;strokeColor=none;fillColor=none;strokeWidth=2;fontSize=20;fontStyle=1" parent="1" vertex="1">
          <mxGeometry x="480" y="480" width="30" height="40" as="geometry" />
        </mxCell>
        <mxCell id="wIwvusdZlKLKtSu7Q3m1-34" value="" style="shape=image;verticalLabelPosition=bottom;labelBackgroundColor=default;verticalAlign=top;aspect=fixed;imageAspect=0;image=data:image/png,iVBORw0KGgoAAAANSUhEUgAAAmQAAAGKCAYAAACit13TAAAAAXNSR0IArs4c6QAAAARnQU1BAACxjwv8YQUAAAAJcEhZcwAAFxEAABcRAcom8z8AAC38SURBVHhe7d1/lN11nd/xPUe6siqW9XiUFGECiUAEmqBLJhFpAhMkB1wETRV/Bk344Q9MJoRt8EdBCyusKxSlUHFZUGlZFUVWEYuwWZMJEQ2GBZR115rj7rF0a0+zpz1bzh7bfvt9zfeT+X4yeWXunZnP997P987zdc7jj743fO7MnU/v5+X98b2/8RvfOL8AAABAH9khAAAAescOAQAA0Dt2CAAAgN6xQwAAAPSOHQIAAKB37FAIIYQQQkjauM4ldiiEEEIIISRtXOcSOxRCCCGEEJI2rnOJHcoAZWj40vlDw+svmr/s4jvnL1u/tVQAAICMDa97Zv7w+geHlq3fOLT8khPCkd7+uM4ldigtztCKtYcODb/3wlDA9hzwRwYAAG2zpyxptw0tf+/5OufDkd++uM4ldigtTFXC1t9TNurnJv0RAQDAINn37NnwpfNDDWhHXOcSO5SWRE9jhmfC9h7wxwIAAHPBfUNL1y8L1SDvuM4ldiiZZ2h43Ur9ASb9QQAAwJy1bqdeLQtVIc+4ziV2KJlGrx2Xd/hu/4cAAABYv2do2frLsnyvmetcYoeSWfRUpJqvudMBAACcvUPD667Jqpi5ziV2KJlEb9Yr71BemgQAADMzvO6ZoWXrVodq0d+4ziV2KBlEn57gE5MAACCNi+8cWrH28FAz+hPXucQOpY/RnaWPs/o7EwAAYMae7euzZa5ziR1Kn1K9V2z9s5PuPAAAgIT69GyZ61xih9KH6I13/k4DAABI7lldRivUkN7EdS6xQ+lhhk5de0R5p/AdkwAAoOd0iYxQSZqP61xih9Kj6HXc0t+7OwgAAKAnlq+7KVSTZuM6l9ih9CBDw+u22DsFAACg9+5p/JplrnOJHUrD4f1iAAAgP+t2Nvpmf9e5xA6lwfDMGAAAyJYuJDt86fxQW9LGdS6xQ2koQ8PrL7K/PAAAQD72Dr12/ZJQX9LFdS6xQ2kglDEAANAie5I/U+Y6l9ihJA5lDAAAtM+63Unf6O86l9ihJAxlDAAAtNbw+gdDpZl9XOcSO5REoYwBAIDWG153W6g2s4vrXGKHkiBDyy85Yf6yi39tfzEAAIAW0VUiQsWZeVznEjuUWUavtx572vv/i/uFAAAA2mho+L0Xhqozs7jOJXYos8yC0y//uvtFAAAAWmt4/XOzuhyG61xihzKLzH/t+y+2vwQAAEDrrdsZKs/04zqX2KHMMEOnrj1i/rJL/o//BQAAANpvaNn6jaH6TC+uc4kdygzzypWbHnc/OAAAwMDQS5enrj0i1J/u4zqX2KHMIK86+yMfsD80AADA4LkvVKDu4zqX2KFMM/pm9GNf94F/ND8sAADAQJr2py5d5xI7lGnm+FX/6tvuBwUAABhgz+pJqVCHOsd1LrFDmUaOW331Pz9m+aX/z/yQAAAAg206V/F3nUvsUKaR41dt+Zn9AQEAAOaAoeFL54daNHVc5xI7lC5zyptueqv7wQAAAOaM5etuCtVo6rjOJXYoXWbRWR/h65EAAMDc1u1lMFznEjuULsKzYwAAAJWuLhbrOpfYoXSRE8/5xM/dDwQAADAH6ROXh4aa5OM6l9ihdMiZl35n6TGvvdT9MAAAAHNSx+uSuc4ldigdsuRNNz3ifhAAAIC5a93uUJV8XOcSO5QpsmLz1iOOG7ny//ofBAAAYO4aWrZudahMB8Z1LrFDmSLL3/Pl33c/AAAAANbfEyrTgXGdS+xQpsjiC2581tw4AADAnDe0bN3fh8p0YFznEjuUg+SsDWNLjjvjCvsDAAAAQG/uX7cyVKf94zqX2KEcJKdd/I1b3Q0DAACgUhaya0J12j+uc4kdykHy6n95y/90NwwAAIBg+fonQ3XaP65ziR2KycgV21cuOvuj/oYBAAAwYWjF2sNDharjOpfYoZic8aFHruVisAAAAJ0NDa+/KFSoOq5ziR2KyWkXf+2H7gYBAAAw2cV3hgpVx3UusUOZlBVXbz30NRd+7tf+BgEAALC/i/9bqFF1XOcSO5RJGRndtvqkN/y+uTEAAAA4Q8OXzg9VqorrXGKHMikjm8ZueuWKUXtjAAAAONAB1yNznUvsUCblzI1bv+duCAAAAN7Q8HsvDFWqiutcYocyKadf9q1fuRsCAADAQZx26eZQpaq4ziV2KFFWbNh6+PKL/qO/IQAAAFivXLnxj0OdquI6l9ihRFk1un3Z77ztdntDAAAA8I47c/OfhzpVxXUusUOJcubotguXvOlGe0MAAADwXrnyip+GOlXFdS6xQ4kycsXYJ1+1+mp7QwAAAPAWrtz4P0KdquI6l9ihRFk1uuNOvsMSAABgeo593Qf+MdSpKq5ziR1KlFWjY/dRyAAAAKYv1KkqrnOJHUqUVZvGtnJRWAAAgOkLdaqK61xihxKFQgYAADAzoU5VcZ1L7FCilIVsD4UMAABg+kKdquI6l9ihRFEhczcAAACAqYU6VcV1LrFDiVIWsr3uBgAAADC1UKequM4ldihRykJmbwAAAABTC3WqiutcYocShUIGAAAwM6FOVXGdS+xQolDIAAAAZibUqSquc4kdShQKGQAAwMyEOlXFdS6xQ4lCIQMAAJiZUKequM4ldihRKGQAAAAzE+pUFde5xA4lCoUMAABgZkKdquI6l9ihRKGQAQAAzEyoU1Vc5xI7lCgUMgAAgJkJdaqK61xihxJFhQwAAADTF+pUFde5xA4lilscAAAAnYU6VcV1LrFDieIWBwAAQGehTlVxnUvsUKK4xQEAANBZqFNVXOcSO5QobnEAAAB0FupUFde5xA4lilscAAAAnYU6VcV1LrFDieIWBwAAQGehTlVxnUvsUKK4xQEAANBZqFNVXOcSO5QobnEAAAB0FupUFde5xA4lilscAAAAnYU6VcV1LrFDieIWBwAAQGehTlVxnUvsUKK4xQEAANBZqFNVXOcSO5QobnEAAAB0FupUFde5xA4lilscAAAAnYU6VcV1LrFDieIWBwAAQGehTlVxnUvsUKK4xQEAANBZqFNVXOcSO5QobnEAAAB0FupUFde5xA4lilscAAAAnYU6VcV1LrFDieIWBwAAQGehTlVxnUvsUKK4xQEAANBZqFNVXOcSO5QobnEAAAB0FupUFde5xA4lilscAAAAnYU6VcV1LrFDieIWBwAAQGehTlVxnUvsUKK4xQEAANBZqFNVXOcSO5QobnEAAAB0FupUFde5xA4lilscAAAAnYU6VcV1LrFDieIWBwAAQGehTlVxnUvsUKK4xQEAANBZqFNVXOcSO5QobnEAAAB0FupUFde5xA4lilscAAAAnYU6VcV1LrFDieIWBwAAQGehTlVxnUvsUKK4xQEAANBZqFNVXOcSO5QobnEAAAB0FupUFde5xA4lilscAAAAnYU6VcV1LrFDieIWBwAAQGehTlVxnUvsUKK4xQEAANBZqFNVXOcSO5QobnEAAAB0FupUFde5xA4lilscAAAAnYU6VcV1LrFDieIWBwAAQGehTlVxnUvsUKK4xQEAANBZqFNVXOcSO5QobnEAAAB0FupUFde5xA4lilscAAAAnYU6VcV1LrFDieIWBwAAQGehTlVxnUvsUKK4xQEAANBZqFNVXOcSO5QobnEAAAB0FupUFde5xA4lilscAAAAnYU6VcV1LrFDieIWBwAAQGehTlVxnUvsUKK4xQEAANBZqFNVXOcSO5QobnEAAAB0FupUFde5xA4lilscAAAAnYU6VcV1LrFDieIWBwAAQGehTlVxnUvsUKK4xQEAANBZqFNVXOcSO5QobnEAAAB0FupUFde5xA4lilscAAAAnYU6VcV1LrFDieIWBwAAQGehTlVxnUvsUKK4xQEAANBZqFNVXOcSO5QobnEAAAB0FupUFde5xA4lilscAAAAnYU6VcV1LrFDieIWBwAAQGehTlVxnUvsUKK4xQEAANBZqFNVXOcSO5QobnEAAAB0FupUFde5xA4lilscAAAAnYU6VcV1LrFDieIWBwAAQGehTlVxnUvsUKK4xQEAANBZqFNVXOcSO5QobnEAAAB0FupUFde5xA4lilu8zd7+8UeLW+7eVTz40BPF4489Oe4f/ubHxa9/+RO01L6/48OPPFHcfs+u4pLrd9q/PQAAvRbqVBXXucQOJYpbvI1UwvY89bQ90DF4fvmTp4u77n28OP+qHXY/AADQC6FOVXGdS+xQorjF2+Rjt/5g/HB2hzYG39/99dPFjV/4od0bAAA0LdSpKq5ziR1KFLd4G5xz5Y7i/m/vtoc05p5t33uCZ8sAAD0X6lQV17nEDiWKWzx3Onif2vWkPZgxd+kla72H0O0ZAACaEOpUFde5xA4lils8Z3pmjDKGg9HL1zxTBgDolVCnqrjOJXYoUdziOdOnJ91BDOyjT2S6vQMAQGqhTlVxnUvsUKK4xXP1b27/gT2Agcn0qVu3hwAASCnUqSquc4kdShS3eI70UqU+UecOX2AyXXvuLR/l/WQAgGaFOlXFdS6xQ4niFs+RnvFwBy9wMF/95o/sXgIAIJVQp6q4ziV2KFHc4jniWmOYLj1LpmdW3X4CACCFUKequM4ldihR3OK5uejaR+2BC3Sy5TOP2T0FAEAKoU5VcZ1L7FCiuMVzo6/IcYct0Ik+lev2FAAAKYQ6VcV1LrFDieIWz42uwu4OW6CTn+5+yu4pAABSCHWqiutcYocSxS2eG11Xyh22QCd676HbUwAApBDqVBXXucQOJYpbPDe8oR+z4fYUAAAphDpVxXUusUOJ4hbPjT4t5w5aoBtuTwEAkEKoU1Vc5xI7lChu8dy4QxbolttTAACkEOpUFde5xA4lils8N+6QBbrl9hQAACmEOlXFdS6xQ4niFs+NO2SBbrk9BQBACqFOVXGdS+xQorjFc+MOWaBbbk8BAJBCqFNVXOcSO5QobvHcuEMW6JbbUwAApBDqVBXXucQOJYpbPDfukAW65fYUZmbZ224pjh9eUwwtXFzMmzcPAPpKj0XHnXpesXTNDfYxqxdCnariOpfYoURxi+fGHbJAt9yewvSdtHK9fUAEgByomLnHrqaFOlXFdS6xQ4niFs+NO2SBbrk9henR//p0D4AAkJNTzr3KPoY1KdSpKq5ziR1KFLd4btwhC3TL7SlMj/6Xp3vwA4CcHLNouX0Ma1KoU1Vc5xI7lChu8dy4QxbolttTmJ6jjl1kH/wAIDfuMaxJoU5VcZ1L7FCiuMVz4w5ZoFtuT2F6Fi5ZZR/4ACAnepO/ewxrUqhTVVznEjuUKG7x3LhDFuiW21OYniWrN9sHPwDIiT585B7DmhTqVBXXucQOJYpbPDfukAW65fYUpmdkw9Ziwckr7AMgAORAz46deflD9jGsSaFOVXGdS+xQorjFc+MOWaBbbk9h+lTKTh55H+8nA5CVI49eUJx4+tq+lDEJdaqK61xihxLFLZ4bd8gC3XJ7CgCAFEKdquI6l9ihRHGL58YdskC33J4CACCFUKequM4ldihR3OK5cYcs0C23pwAASCHUqSquc4kdShS3eG7cIQt0y+0pAABSCHWqiutcYocSxS2eG3fIAt1yewoAgBRCnariOpfYoURxi+fGHbJAt9yeAgAghVCnqrjOJXYoUdziuXGHLNAtt6cAAEgh1KkqrnOJHUoUt3hu3CELdMvtKQAAUgh1qorrXGKHEsUtnht3yALdcnsKAIAUQp2q4jqX2KFEcYvnxh2yQLfcngIAIIVQp6q4ziV2KFHc4rlxhyzQLbenAABIIdSpKq5ziR1KFLd4btwhC3TL7SkAAFIIdaqK61xihxLFLZ4bd8gC3XJ7CgCAFEKdquI6l9ihRHGL58YdskC33J4CACCFUKequM4ldihR3OK5cYcs0C23pwAASCHUqSquc4kdShS3eG7cIQt0y+0pAABSCHWqiutcYocSxS2eG3fIAt1yewoAgBRCnariOpfYoURxi+fGHbJAt9yeAgAghVCnqrjOJXYoUdziuXGHLNAtt6cAAEgh1KkqrnOJHUoUt3hu3CELdMvtKQAAUgh1qorrXGKHEsUtnht3yALdcnsKAIAUQp2q4jqX2KFEcYvnxh2yQLfcngIAIIVQp6q4ziV2KFHc4rlxhyzQLbenAABIIdSpKq5ziR1KFLd4btwhC3TL7SkAAFIIdaqK61xihxLFLZ4bd8gC3XJ7CgCAFEKdquI6l9ihRHGL58YdskC33J4CACCFUKequM4ldihR3OK5cYcs0C23pwAASCHUqSquc4kdShS3eG7cIQt0y+0pAABSCHWqiutcYocSxS2eG3fIAt1yewoAgBRCnariOpfYoURxi+fGHbJAt9yeAgAghVCnqrjOJXYoUdziuXGHLNAtt6cAAEgh1KkqrnOJHUoUt3hu3CELdMvtKQAAUgh1qorrXGKHEsUtnht3yALdcnsKAIAUQp2q4jqX2KFEcYvnxh2yQLfcngIAIIVQp6q4ziV2KFHc4rlxhyzQLbenAABIIdSpKq5ziR1KFLd4btwhOxf96pnHil0Pfb24947PjrvjpuuKh++9y/5b1NyeAgAghVCnqrjOJXYoUdziuXGH7FygAqbitWL50uLwFx+mv9uU3rh6pPj0NVvG/zu33lzl9hQAACmU528d17nEDiWKWzw37pAdVCpTeuZr8YkndFXCDkYlTuu425hr3J7qlWVvu6U4fnhNMbRwcTFv3jwAQEJ6bD3u1POKpWtusI/BvVCeuXVc5xI7lChu8dy4Q3bQqIh96OJ3z6qEOUNHHTnni5nbU71w0sr19gEEAJCeipl7LG5aedbWcZ1L7FCiuMVz4w7ZQaKXJVWcyj9HY/SMm95/5m5/0Lk91TT9rzX3gAEAaM4p515lH5ObVJ6xdVznEjuUKG7x3LhDdhCoIKkolX+GntGzcHo2bi69z8ztqabpf6m5BwsAQHOOWbTcPiY3qTxb67jOJXYoUdziuXGHbNvpWbHUL0/OhN5rppL2s+9/1/6cg8DtqaYddewi+2ABAGiWe0xuUnmW1nGdS+xQorjFc+MO2TbTJyFzKGOTvfstF9ift+3cnmrawiWr7AMFAKA5epO/e0xuUnl+1nGdS+xQorjFc+MO2bbSG+xzLGP7DOJ7zdyeatqS1ZvtgwUAoDn6MJV7TG5SeXbWcZ1L7FCiuMVz4w7ZNtLLgjmXsX30Mw5SKXN7qmkjG7YWC05eYR8wAADp6dmxMy9/yD4mN6k8N+u4ziV2KFHc4rlxh2wb6f1a5V3eCoNUytye6gWVspNH3sf7yQCgQUcevaA48fS1fSljUp6ZdVznEjuUKG7x3LhDtm30vrHy7m4VXYrD/S5t4/YUAAAplOdlHde5xA4lils8N+6QbRNdYqINL1U6KpLud2oTt6cAAEihPCvruM4ldihR3OK5cYdsm3xs0wcmCk4/qAzu+zJyXeLC/ZuD0X/rfqc2cXsKAIAUyrOyjutcYocSxS2eG3fItkW/nx3T+9YmX2NM/29d4sL9e6ft1yhzewoAgBTKc7KO61xihxLFLZ4bd8i2Rb/eO6YSqNue6or83T5z1/aXLd2eAgAghfKcrOM6l9ihRHGL58Ydsm3xxtUjE8WmV/a9RBn/HCpm1101Wvzt7m37zR++9y67Rkwvc8b/Tdu4PQUAQArlOVnHdS6xQ4niFs+NO2TboB8vV7qXKL//7a9MfHn5oc9//vh7yeL/uy5vMdXPqVIZ//u2cXsKAIAUynOyjutcYocSxS2eG3fItoGKTnkX98S+lygn/wyaHXLI8w749x/ecNl+/04lbvK/2Udrx/+2bdyeAgAghfKcrOM6l9ihRHGL58Ydsm2glw3Lu7hx7uuOHn3gy8W71rzR/vt93nfR24v//INHJv6bqV6+jNduG7enAABIoTwj67jOJXYoUdziuXGHbBv04g39+rTk5Dfuf+MLtxYvfclv238/mV7ifO4XT038twe7LMZUHw7IndtTAACkUJ6RdVznEjuUKG7x3LhDtg2aLGTujft6tmvz+9cVL3zBb9n/5mC2fOiS/dZxX/HU5q9RcnsKAIAUyjOyjutcYocSxS2eG3fItkEThUxFzD0r9sB/uL14w1ln2P+mk8Ne9MLij26s3+jvPoyglzPj22sTt6cAAEihPCPruM4ldihR3OK5cYdsG6S85IUKktZzz1TdfO1Hihe98AX2v+uWXuLcs2vrxJqT3/9GIQMA4EDlGVnHdS6xQ4niFs+NO2Rzl+KSF7pUhUqYLlPh3sP19Pe+VZy29NX2v50JrRW/nywulBQyAAAOVJ6RdVznEjuUKG7x3LhDNnfdfsJSpU3FS5+UVAHS1fNVfqZ6E73+b7psha4p5tacjRs+duV+t7Pv+mVt/vokt6cAAEihPCPruM4ldihR3OK5cYds7lRm9B6ymJ7pUlFT4dJLj/o3UxWvyfTf6FOQTRSxfbT2E4/cP3Gb+lk1p5ABAHCg8oys4zqX2KFEcYvnxh2yc4He06UCt+my9xQnnvDK8WLUC3q2Ln7pcvKV/dvG7SkAAFIoz806rnOJHUoUt3hu3CE7KFR89OzTn993d3H3rX84/pKhXrp8xbyXTxSkflAJdD9vG7k9BQBACuWZWcd1LrFDieIWz407ZNvkc5/6xPilKkTX+JLXLD6pOOJlL50oQDlq8xv5Y25PAQCQQnle1nGdS+xQorjFc+MO2TbRG/XLu7p19KnLH/6nr9nfqU3cngIAIIXyvKzjOpfYoURxi+fGHbJtctsN10yUnLZZ+9YLir1/tcv+Xm3h9hQAACmUZ2Ud17nEDiWKWzw37pBtk+/8yR0TBaeNeFM/AABeeU7WcZ1L7FCiuMVz4w7ZNtHLfuVd3Vpf+fzN9vdqC7enAABIoTwn67jOJXYoUdziuXGHbJvoJb8mrx3WNF6yBADAK8/JOq5ziR1KFLd4btwh2zbvePPvThScNtEnQt3v0yZuTwEAkEJ5VtZxnUvsUKK4xXPjDtm2ueszN0yUnDbRNwO436dN3J4CACCF8qys4zqX2KFEcYvnxh2ybfPjbQ8UL3vpSyaKThv8k0MOKb75pc/Z36dN3J4CACCF8rys4zqX2KFEcYvnxh2ybXT2Ga+bKDttMAgvV4rbUwAApFCel3Vc5xI7lChu8dy4Q7aN7vncTcXzf/M3JwpP7u68+Xr7e7SN21MAAKRQnpd1XOcSO5QobvHcuEO2rd587usnCk/OFsw/2v78beT2FAAAKZRnZh3XucQOJYpbPDfukG2r7371zuLII14+UXxy9FuHHlp84bN/YH/+NnJ7CgCAFMpzs47rXGKHEsUtnht3yLaZPrlY3vXZ0pegu5+7rdyeAgAghfLcrOM6l9ihRHGL58Ydsm32lzu+U1xwzlkTBSgnw69eXOx+5Bv2524rt6cAAEihPDvruM4ldihR3OK5cYds2/3t7m3FK+a9fKII5eCQQ55XfOvu2+3P22ZuTwEAkEJ5ftZxnUvsUKK4xXPjDtlBcP8XbytedfzCiULUTyqHn//0tfbnbDu3pwAASKE8Q+u4ziV2KFHc4rlxh+ygePjeu4oXvfAFE8WoH/TM2J/c/m/tzzcI3J4CACCF8hyt4zqX2KFEcYvnxh2yg+Tp732rOH7hsRMFqZcOf/FhxTe+cKv9uQaF21MAAKRQnqV1XOcSO5QobvHcuEN20DzxyP3F2rdeMFGUekHXRPuzr33R/jyDxO2pXln2tluK44fXFEMLFxfz5s0DACSkx9bjTj2vWLrmBvsY3AvleVrHdS6xQ4niFs+NO2QH0XO/eKq47qrR8Wetyj9NY/QS5e998OLx23M/x6Bxe6oXTlq53j6AAADSUzFzj8VNK8/VOq5ziR1KFLd4btwhO8h02YktH7qkmH/0KyZKVApHvOylxfvf84458axYzO2ppul/rbkHDABAc0459yr7mNyk8nyt4zqX2KFEcYvnxh2yc4EujaGLyA4ddeREqZqJl77kt4tL3vXW8eufudsZdG5PNU3/S809WAAAmnPMouX2MblJ5Tlbx3UusUOJ4hbPjTtk5xq98f+Gj11ZjJy+fPyZrvJPd1D61OZrFp9UfHjDZcXYN++x680lbk817ahjF9kHCwBAs9xjcpPKc7eO61xihxLFLZ4bd8jiJ8WeXVuLXQ99ffzSGaJnwPb+1S77b+cyt6eatnDJKvtAAQBojt7k7x6TmxTqVBXXucQOJYpbPDfukAW65fZU05as3mwfLAAAzdGHqdxjcpNCnariOpfYoURxi+fGHbJAt9yeatrIhq3FgpNX2AcMAEB6enbszMsfso/JTQp1qorrXGKHEsUtnht3yALdcnuqF1TKTh55H+8nA4AGHXn0guLE09f2pYxJqFNVXOcSO5QobvHcuEMW6JbbUwAApBDqVBXXucQOJYpbPDfukAW65fYUAAAphDpVxXUusUOJ4hbPjTtk5zJ9ulJftaRPVt5x03X7ueszN+z3qcv/9fPddo25xO0pAABSCHWqiutcYocSxS2eG3fIDjIVKRUrXVX/HW/+3WLF8qXjXz7e6fpjB6MLwy4+8YTi3FUri4//3ofGy9pcujyG21MAAKRQnrN1XOcSO5QobvHcuEN2UDwz9mDxlc/fXHxs0weKC845q1h4zNBEkWrSSw7/p8UZpw0XGy5eW/zxzZ8sHv/uffbnGwRuTwEAkEJ5ptZxnUvsUKK4xXPjDtm2evapHcW/u/7q8We+Fsw/eqIg5UBf0fTWN54z/vPpZVH387eR21MAAKRQnp91XOcSO5QobvHcuEO2Tf7iz/60uPnajxRvOvf1489MlXd79l582IuKN5x1RvEH//rK4vvf/or9vdrC7SkAAFIoz8w6rnOJHUoUt3hu3CGbO72Z/nOf+sT4d08ecsjzJopOW5229NXFp6/ZMv6F5+73zZnbUwAApFCekXVc5xI7lChu8dy4QzZXOx/4yviXep+86PiJMjNI/tnLX1a89+1rinvv+Gzxv3/xpL0PcuP2FAAAKZRnYx3XucQOJYpbPDfukM3N/V+8rVj/zrfM+JOQbbTqX7y2uPHjV41/KtTdJ7lwewoAgBTK87CO61xihxLFLZ4bd8jmQpeQ0Mt55V05Zx3+4sPGPyX6q2ces/dRv7k9BQBACuU5WMd1LrFDieIWz407ZPvtT7/078c/Kfm857X//WGpLDlpUXH9Rzdn9wlNt6cAAEihPP/quM4ldihR3OK5cYdsv2z9+peKS9994fizQuXdB+P0Zb8zfumM//6XeTxj5vYUAAAplOdeHde5xA4lils8N+6Q7TVd2X7TZe8pDn3+8yeKB6b2msUnFbse+rq9P3vJ7SkAAFIoz7s6rnOJHUoUt3hu3CHbS3ff+ofFytcOTxQNdO/oI+cVn/zIFX39qia3pwAASKE86+q4ziV2KFHc4rlxh2wv/HjbA8XGSy4qDnvRCycKBmbmXWveWDz6wJft/dw0t6cAAEihPOPquM4ldihR3OK5cYds0/Tl3novVHkXIRG9hPlHN15n7+8muT0FAEAK5flWx3UusUOJ4hbPjTtkm3Ttlo28V6whul91/7r7vSluTwEAkEJ5ttVxnUvsUKK4xXPjDtmmXL35gwPxVUc50/17zZWX2/u/CW5PAQCQQnmu1XGdS+xQorjFc+MO2SbouyfLuwQ9cusN19i/Q2puTwEAkEJ5ntVxnUvsUKK4xXPjDtnUfvTwfcWpS06eKAto3iknv2r8uz/d3yMlt6cAAEihPM/quM4ldihR3OK5cYdsarrGWHl3oMf0ReXu75GS21MAAKRQnmV1XOcSO5QobvHcuEM2pf/69KPF4hNPmCgJ6J0F848ufvbYw/bvkorbUwAApFCeZXVc5xI7lChu8dy4Qzalb919+0RBQO/pwrvu75KK21MAAKRQnmN1XOcSO5QobvHcuEM2pQ9vuGyiHKD3PrjunfbvkorbUwAApFCeY3Vc5xI7lChu8dy4Qzald645b6IcoPfOO/tM+3dJxe0pAABSKM+xOq5ziR1KFLd4btwhm5KuIF/eFeiT4xcea/8uqbg9BQBACuU5Vsd1LrFDieIWz407ZFPiDf39NXTUkfbvkorbUwAApFCeY3Vc5xI7lChu8dy4QzYlCll/UcgAAG1VnmN1XOcSO5QobvHcuEM2JQpZf1HIAABtVZ5jdVznEjuUKG7x3LhDNiUKWX9RyAAAbVWeY3Vc5xI7lChu8dy4QzYlCll/UcgAAG1VnmN1XOcSO5QobvHcuEM2JQpZf1HIAABtVZ5jdVznEjuUKG7x3LhDNiUKWX9RyAAAbVWeY3Vc5xI7lChu8dy4QzYlCll/UcgAAG1VnmN1XOcSO5QobvHcuEM2JQpZf1HIAABtVZ5jdVznEjuUKG7x3LhDNiUKWX9RyAAAbVWeY3Vc5xI7lChu8dy4QzYlCll/UcgAzEXL3nZLcfzwmmJo4eJi3rx5mAHdd8edel6xdM0N9j7uhfIcq+M6l9ihRHGL58YdsilRyPprkAsZD7hA93I4XHvlpJXr7X2AmdPecfd108pzrI7rXGKHEsUtnht3yKZEIeuvQS1kPOACM9evw7UXVDjd74zZO+Xcq+x93qTyHKvjOpfYoURxi+fGHbIpUcj6axALGQ+4wOz143DtBZVN9/ti9o5ZtNze500qz7E6rnOJHUoUt3hu3CGbEoWsvwaxkPGAC8xePw7XXjjq2EX290Ua7j5vUnmO1XGdS+xQorjFc+MO2ZQoZP01iIWMB1wgDff/v9pu4ZJV9nfF7Ol9iO4+b1J5jtVxnUvsUKK4xXPjDtmUKGT9NYiFjAdcYPb6cbj2wpLVm+3vi9nTe3fdfd6k8hyr4zqX2KFEcYvnxh2yKVHI+msQCxkPuMDs9eNw7YWRDVuLBSevsL8zZk4F/szLH7L3eZPKc6yO61xihxLFLZ4bd8imRCHrr0EsZDzgArPTr8O1V/QYcfLI+3h7QwJHHr2gOPH0tX3bL+U5Vsd1LrFDieIWz407ZFOikPXXIBYy4QEXmL5+H67AdJXnWB3XucQOJYpbPDfukE2JQtZfg1rIAACDrzzH6rjOJXYoUdziuXGHbEoUsv6ikAEA2qo8x+q4ziV2KFHc4rlxh2xKFLL+opABANqqPMfquM4ldihR3OK5cYdsSqctffV4KUB/6P53f5dU3J4CACCFUKequM4ldihR3OK5cYcs0C23pwAASCHUqSquc4kdSpRVo2PPuRvIiTtkgW65PQUAQAqhTlVxnUvsUKKUi+2ZvHhu3CELdMvtKQAAUgh1qorrXGKHEqVcjEKGgeb2FAAAKYQ6VcV1LrFDiTKyaWynu4GcuEMW6JbbUwAAzNro2LOhTlVxnUvsUKKUC2494AYy83d//bQ9aIFuuD0FAEACe0KdquI6l9ihRCkXe3DS4tn56e6n7EELdLL35z+2ewoAgNkaGd3+TKhTVVznEjuUKKtGd9zpbiQnO3f8hT1sgU72PPW03VMAACSwNdSpKq5ziR1KlJFNYzeZG8jKV7/5I3vYAp1s+94Tdk8BADBro2P3hTpVxXUusUOJsmrj2GX2RjKy5TOP2cMW6OT6O35g9xQAALM1csXYJ0OdquI6l9ihRBm5YvtKdyM5OefKHePvBXIHLjCVt3z0UbunAACYrbM2jV0U6lQV17nEDiXKis1bj3A3kpv7v73bHrjAwfByJQCgUaPbl4U6VcV1LrFDmZRy0b0H3Ehm9EzHP/wNz5Khe5dcv9PuJQAAUlixYevhoUpVcZ1L7FAmZWTT9t3uhnJz172P24MXmOzBh3h2DADQqL2hRtVxnUvsUCalDZe+EL2X7KldT9oDGNjnlz95ujj/qh12DwEAkMj+l7xQXOcSO5RJ0ZvSzA1l6e0ff5Qr9+Og9LI2L1UCAJo2Mrr9mlCj6rjOJXYok3L2hp3z3Y3lSgcun7rEZCpjukSK2zMAAKSkq1SEGlXHdS6xQzHR5f/dDeZKz5TxlUrYRy9T8swYAKBH9q64euuhoULVcZ1L7FBM2nDF/sn0njKu4o+HH3mC94wBAHpn8hX698V1LrFDMTlz07bz7Y22gJ4t0zWn3GGNwfX4Y08WH/zU9+2eAACgMaPbN4b6tH9c5xI7FBNdS6NsfM/ZG24JXatMX5WjcqaXsNwhjvbShzn0RfO33L1rvIS7PQAAQNNev2nHCaE+7R/XucQO5SApb+SeyTcKAACAysimsZ2hNh0Y17nEDuUgGRndttrdOAAAAEoHe7lScZ1L7FAOEn1iYNXo2LP2BwAAAJjj9B3goTYdGNe5xA5lirTx05YAAAA98GCoSz6uc4kdyhQ5a8PYEvMDAAAAzGn6ZqNQl3xc5xI7lA5py5eNAwAA9MTo2LP2YrBxXOcSO5QOafM1yQAAAJKb6s38++I6l9ihdBGeJQMAACh18+yY4jqX2KF0EZ4lAwAAKHXz7JjiOpfYoXQZniUDAABzWrfPjimuc4kdSpfhWTIAADCndfvsmOI6l9ihTCPlD/PgAT8cAADAgNMrhV0/O6a4ziV2KNOIvkCz7V86DgAAMF0jV2xfGepQd3GdS+xQppmR0e3XuB8UAABgII3uuDPUoO7jOpfYoUwz499xuWlszwE/LAAAwODZO+V3Vh4srnOJHcoMMjK6bbX5gQEAAAbLxrHLQv2ZXlznEjuUGYYvHgcAAANtdOy+UHumH9e5xA5lhtFLl2Up22l/AQAAgHbbs2LD1sND7Zl+XOcSO5RZ5OwNO+eXP/DeSb8AAABAe+mKEqPbl4W6M7O4ziV2KLMMF4wFAAADZToXgD1YXOcSO5QEGdm0/Tb7CwEAALTJbN43Fsd1LrFDSZTyl7jngF8KAACgPbZO62r8U8V1LrFDSZRwfTK+WgkAALTO+FcjzeZN/JPjOpfYoSRM9cnL7bvdLwoAAJCpPTO6+OtUcZ1L7FASR+2SUgYAAFpij64aEWpMurjOJXYoDYRSBgAAWqCZMqa4ziV2KA1Fpaz8RXlPGQAAyM74e8ZSv0wZx3UusUNpMOGN/nz6EgAA5GRr0jfwu7jOJXYoPciq0R13mjsDAACgt0bH7kt2aYup4jqX2KH0KGdtGrto/KsI3J0DAADQtI3bt4Ra0nxc5xI7lB7m9Zt2nDAyuv0ZeycBAAA0YXTs2Vl/N+V04zqX2KH0OOFaZXzVEgAAaJ5eomz6/WIurnOJHUqfcubotgvHG6u78wAAAGZnb5IvCZ9pXOcSO5Q+prpe2dhN5k4EAACYqXsavaRFN3GdS+xQMohe1y2L2U5zhwIAAHRF71MfGd22OtSL/sZ1LrFDySirNo5dxsuYAABgmvbqE5Q9uZxFt3GdS+xQMsv4xWRHt2+kmAEAgA72joxuv6Yvb9rvFNe5xA4l44xfu2zT2J5Jdz4AAJjb8i1i++I6l9ihtCDhE5n3mT8IAACYI8bfb75x7LKsi9i+uM4ldigtiv4A+kPwAQAAAOaG8QvKb9y+5ewNO+eHOtCOuM4ldigtjf4w4b1m95X4SiYAAAbHVr0kedaGsSXh2G9fXOcSO5QBiS6doQatP+KkPyoAAMiYXvkauWLsk7pkRVaflJxNXOcSO5QBjS4IN3LF9pV6Fk0tu/yDq6gJHxIAAKCXqisnjJ/DKl56AkVndOtehpxOXOcSOxRCCCGEEJI2rnOJHQohhBBCCEkb17nEDoUQQgghhKSN61xihwAAAOgdOwQAAEDv2CEAAAB6xw4BAADQO3YIAACA3rFDAAAA9Mj5xf8H4ECuCOVuAHUAAAAASUVORK5CYII=;rotation=-180;strokeWidth=2;fontSize=20;fontStyle=1" parent="1" vertex="1">
          <mxGeometry x="529" y="370" width="155.33" height="100" as="geometry" />
        </mxCell>
        <mxCell id="wIwvusdZlKLKtSu7Q3m1-35" value="" style="endArrow=classic;startArrow=classic;html=1;strokeColor=#0000FF;fontColor=#FF0000;strokeWidth=2;fontSize=20;fontStyle=1" parent="1" edge="1">
          <mxGeometry width="50" height="50" relative="1" as="geometry">
            <mxPoint x="520" y="470" as="sourcePoint" />
            <mxPoint x="520" y="370" as="targetPoint" />
          </mxGeometry>
        </mxCell>
        <mxCell id="wIwvusdZlKLKtSu7Q3m1-36" value="W" style="text;html=1;align=center;verticalAlign=middle;resizable=0;points=[];autosize=1;strokeColor=none;fillColor=none;fontColor=#0000FF;strokeWidth=2;fontSize=20;fontStyle=1" parent="1" vertex="1">
          <mxGeometry x="480" y="400" width="40" height="40" as="geometry" />
        </mxCell>
        <mxCell id="wIwvusdZlKLKtSu7Q3m1-37" value="" style="endArrow=classic;startArrow=classic;html=1;strokeColor=#FF0000;strokeWidth=2;fontSize=20;fontStyle=1" parent="1" edge="1">
          <mxGeometry width="50" height="50" relative="1" as="geometry">
            <mxPoint x="529" y="360" as="sourcePoint" />
            <mxPoint x="680" y="360" as="targetPoint" />
          </mxGeometry>
        </mxCell>
        <mxCell id="wIwvusdZlKLKtSu7Q3m1-38" value="L" style="text;html=1;align=center;verticalAlign=middle;resizable=0;points=[];autosize=1;strokeColor=none;fillColor=none;fontColor=#FF0000;strokeWidth=2;fontSize=20;fontStyle=1" parent="1" vertex="1">
          <mxGeometry x="590" y="320" width="40" height="40" as="geometry" />
        </mxCell>
        <mxCell id="wIwvusdZlKLKtSu7Q3m1-39" value="" style="endArrow=none;dashed=1;html=1;rounded=0;" parent="1" edge="1">
          <mxGeometry width="50" height="50" relative="1" as="geometry">
            <mxPoint x="112" y="218" as="sourcePoint" />
            <mxPoint x="302" y="218" as="targetPoint" />
          </mxGeometry>
        </mxCell>
        <mxCell id="wIwvusdZlKLKtSu7Q3m1-40" value="" style="endArrow=none;dashed=1;html=1;rounded=0;" parent="1" edge="1">
          <mxGeometry width="50" height="50" relative="1" as="geometry">
            <mxPoint x="47" y="139" as="sourcePoint" />
            <mxPoint x="258" y="237" as="targetPoint" />
          </mxGeometry>
        </mxCell>
        <mxCell id="wIwvusdZlKLKtSu7Q3m1-41" value="" style="endArrow=none;dashed=1;html=1;rounded=0;" parent="1" edge="1">
          <mxGeometry width="50" height="50" relative="1" as="geometry">
            <mxPoint x="74" y="493" as="sourcePoint" />
            <mxPoint x="264" y="493" as="targetPoint" />
          </mxGeometry>
        </mxCell>
        <mxCell id="wIwvusdZlKLKtSu7Q3m1-42" value="" style="endArrow=none;dashed=1;html=1;rounded=0;" parent="1" edge="1">
          <mxGeometry width="50" height="50" relative="1" as="geometry">
            <mxPoint x="67" y="508" as="sourcePoint" />
            <mxPoint x="300" y="424" as="targetPoint" />
          </mxGeometry>
        </mxCell>
        <mxCell id="wIwvusdZlKLKtSu7Q3m1-48" value="" style="endArrow=classicThin;html=1;strokeColor=#FF0000;fontColor=#0000FF;endFill=1;strokeWidth=2;fontSize=20;fontStyle=1" parent="1" edge="1">
          <mxGeometry width="50" height="50" relative="1" as="geometry">
            <mxPoint x="168" y="196" as="sourcePoint" />
            <mxPoint x="165" y="217" as="targetPoint" />
            <Array as="points">
              <mxPoint x="157" y="202" />
            </Array>
          </mxGeometry>
        </mxCell>
        <mxCell id="wIwvusdZlKLKtSu7Q3m1-50" value="&lt;span style=&quot;font-size: 20px; line-height: 107%; font-family: &amp;quot;Times New Roman&amp;quot;, serif;&quot;&gt;&lt;font color=&quot;#ff0000&quot; style=&quot;font-size: 20px;&quot;&gt;θ&lt;/font&gt;&lt;/span&gt;" style="text;html=1;align=center;verticalAlign=middle;resizable=0;points=[];autosize=1;strokeColor=none;fillColor=none;fontColor=#0000FF;strokeWidth=2;fontSize=20;fontStyle=1" parent="1" vertex="1">
          <mxGeometry x="130" y="187" width="30" height="40" as="geometry" />
        </mxCell>
        <mxCell id="wIwvusdZlKLKtSu7Q3m1-53" value="" style="endArrow=classicThin;html=1;strokeColor=#FF0000;fontColor=#0000FF;endFill=1;strokeWidth=2;fontSize=20;fontStyle=1;exitX=0.532;exitY=0.006;exitDx=0;exitDy=0;exitPerimeter=0;" parent="1" source="YIn-AIv_8YK0jEi9B2TO-57" edge="1">
          <mxGeometry width="50" height="50" relative="1" as="geometry">
            <mxPoint x="174" y="471" as="sourcePoint" />
            <mxPoint x="180" y="493" as="targetPoint" />
            <Array as="points">
              <mxPoint x="196" y="475" />
            </Array>
          </mxGeometry>
        </mxCell>
        <mxCell id="wIwvusdZlKLKtSu7Q3m1-54" value="&lt;span style=&quot;font-size: 20px; line-height: 107%; font-family: &amp;quot;Times New Roman&amp;quot;, serif;&quot;&gt;&lt;font color=&quot;#ff0000&quot; style=&quot;font-size: 20px;&quot;&gt;θ&lt;/font&gt;&lt;/span&gt;" style="text;html=1;align=center;verticalAlign=middle;resizable=0;points=[];autosize=1;strokeColor=none;fillColor=none;fontColor=#0000FF;strokeWidth=2;fontSize=20;fontStyle=1" parent="1" vertex="1">
          <mxGeometry x="187" y="454" width="30" height="40" as="geometry" />
        </mxCell>
        <mxCell id="tfkeWMqK3DqRTS9kO2S6-29" value="" style="endArrow=classic;html=1;strokeWidth=2;fontSize=20;fontStyle=1" edge="1" parent="1">
          <mxGeometry width="50" height="50" relative="1" as="geometry">
            <mxPoint x="480" y="40" as="sourcePoint" />
            <mxPoint x="760" y="40" as="targetPoint" />
          </mxGeometry>
        </mxCell>
        <mxCell id="tfkeWMqK3DqRTS9kO2S6-30" value="" style="endArrow=classic;html=1;strokeWidth=2;fontSize=20;fontStyle=1" edge="1" parent="1">
          <mxGeometry width="50" height="50" relative="1" as="geometry">
            <mxPoint x="480" y="40" as="sourcePoint" />
            <mxPoint x="480" y="240" as="targetPoint" />
          </mxGeometry>
        </mxCell>
        <mxCell id="tfkeWMqK3DqRTS9kO2S6-31" value="O" style="text;html=1;align=center;verticalAlign=middle;resizable=0;points=[];autosize=1;strokeColor=none;fillColor=none;strokeWidth=2;fontSize=20;fontStyle=1" vertex="1" parent="1">
          <mxGeometry x="440" width="40" height="40" as="geometry" />
        </mxCell>
        <mxCell id="tfkeWMqK3DqRTS9kO2S6-32" value="x" style="text;html=1;align=center;verticalAlign=middle;resizable=0;points=[];autosize=1;strokeColor=none;fillColor=none;strokeWidth=2;fontSize=20;fontStyle=1" vertex="1" parent="1">
          <mxGeometry x="730" y="40" width="30" height="40" as="geometry" />
        </mxCell>
        <mxCell id="tfkeWMqK3DqRTS9kO2S6-33" value="y" style="text;html=1;align=center;verticalAlign=middle;resizable=0;points=[];autosize=1;strokeColor=none;fillColor=none;strokeWidth=2;fontSize=20;fontStyle=1" vertex="1" parent="1">
          <mxGeometry x="480" y="200" width="30" height="40" as="geometry" />
        </mxCell>
        <mxCell id="tfkeWMqK3DqRTS9kO2S6-34" value="" style="shape=image;verticalLabelPosition=bottom;labelBackgroundColor=default;verticalAlign=top;aspect=fixed;imageAspect=0;image=data:image/png,iVBORw0KGgoAAAANSUhEUgAAAmQAAAGKCAYAAACit13TAAAAAXNSR0IArs4c6QAAAARnQU1BAACxjwv8YQUAAAAJcEhZcwAAFxEAABcRAcom8z8AAC38SURBVHhe7d1/lN11nd/xPUe6siqW9XiUFGECiUAEmqBLJhFpAhMkB1wETRV/Bk344Q9MJoRt8EdBCyusKxSlUHFZUGlZFUVWEYuwWZMJEQ2GBZR115rj7rF0a0+zpz1bzh7bfvt9zfeT+X4yeWXunZnP997P987zdc7jj743fO7MnU/v5+X98b2/8RvfOL8AAABAH9khAAAAescOAQAA0Dt2CAAAgN6xQwAAAPSOHQIAAKB37FAIIYQQQkjauM4ldiiEEEIIISRtXOcSOxRCCCGEEJI2rnOJHcoAZWj40vlDw+svmr/s4jvnL1u/tVQAAICMDa97Zv7w+geHlq3fOLT8khPCkd7+uM4ldigtztCKtYcODb/3wlDA9hzwRwYAAG2zpyxptw0tf+/5OufDkd++uM4ldigtTFXC1t9TNurnJv0RAQDAINn37NnwpfNDDWhHXOcSO5SWRE9jhmfC9h7wxwIAAHPBfUNL1y8L1SDvuM4ldiiZZ2h43Ur9ASb9QQAAwJy1bqdeLQtVIc+4ziV2KJlGrx2Xd/hu/4cAAABYv2do2frLsnyvmetcYoeSWfRUpJqvudMBAACcvUPD667Jqpi5ziV2KJlEb9Yr71BemgQAADMzvO6ZoWXrVodq0d+4ziV2KBlEn57gE5MAACCNi+8cWrH28FAz+hPXucQOpY/RnaWPs/o7EwAAYMae7euzZa5ziR1Kn1K9V2z9s5PuPAAAgIT69GyZ61xih9KH6I13/k4DAABI7lldRivUkN7EdS6xQ+lhhk5de0R5p/AdkwAAoOd0iYxQSZqP61xih9Kj6HXc0t+7OwgAAKAnlq+7KVSTZuM6l9ih9CBDw+u22DsFAACg9+5p/JplrnOJHUrD4f1iAAAgP+t2Nvpmf9e5xA6lwfDMGAAAyJYuJDt86fxQW9LGdS6xQ2koQ8PrL7K/PAAAQD72Dr12/ZJQX9LFdS6xQ2kglDEAANAie5I/U+Y6l9ihJA5lDAAAtM+63Unf6O86l9ihJAxlDAAAtNbw+gdDpZl9XOcSO5REoYwBAIDWG153W6g2s4vrXGKHkiBDyy85Yf6yi39tfzEAAIAW0VUiQsWZeVznEjuUWUavtx572vv/i/uFAAAA2mho+L0Xhqozs7jOJXYos8yC0y//uvtFAAAAWmt4/XOzuhyG61xihzKLzH/t+y+2vwQAAEDrrdsZKs/04zqX2KHMMEOnrj1i/rJL/o//BQAAANpvaNn6jaH6TC+uc4kdygzzypWbHnc/OAAAwMDQS5enrj0i1J/u4zqX2KHMIK86+yMfsD80AADA4LkvVKDu4zqX2KFMM/pm9GNf94F/ND8sAADAQJr2py5d5xI7lGnm+FX/6tvuBwUAABhgz+pJqVCHOsd1LrFDmUaOW331Pz9m+aX/z/yQAAAAg206V/F3nUvsUKaR41dt+Zn9AQEAAOaAoeFL54daNHVc5xI7lC5zyptueqv7wQAAAOaM5etuCtVo6rjOJXYoXWbRWR/h65EAAMDc1u1lMFznEjuULsKzYwAAAJWuLhbrOpfYoXSRE8/5xM/dDwQAADAH6ROXh4aa5OM6l9ihdMiZl35n6TGvvdT9MAAAAHNSx+uSuc4ldigdsuRNNz3ifhAAAIC5a93uUJV8XOcSO5QpsmLz1iOOG7ny//ofBAAAYO4aWrZudahMB8Z1LrFDmSLL3/Pl33c/AAAAANbfEyrTgXGdS+xQpsjiC2581tw4AADAnDe0bN3fh8p0YFznEjuUg+SsDWNLjjvjCvsDAAAAQG/uX7cyVKf94zqX2KEcJKdd/I1b3Q0DAACgUhaya0J12j+uc4kdykHy6n95y/90NwwAAIBg+fonQ3XaP65ziR2KycgV21cuOvuj/oYBAAAwYWjF2sNDharjOpfYoZic8aFHruVisAAAAJ0NDa+/KFSoOq5ziR2KyWkXf+2H7gYBAAAw2cV3hgpVx3UusUOZlBVXbz30NRd+7tf+BgEAALC/i/9bqFF1XOcSO5RJGRndtvqkN/y+uTEAAAA4Q8OXzg9VqorrXGKHMikjm8ZueuWKUXtjAAAAONAB1yNznUvsUCblzI1bv+duCAAAAN7Q8HsvDFWqiutcYocyKadf9q1fuRsCAADAQZx26eZQpaq4ziV2KFFWbNh6+PKL/qO/IQAAAFivXLnxj0OdquI6l9ihRFk1un3Z77ztdntDAAAA8I47c/OfhzpVxXUusUOJcubotguXvOlGe0MAAADwXrnyip+GOlXFdS6xQ4kycsXYJ1+1+mp7QwAAAPAWrtz4P0KdquI6l9ihRFk1uuNOvsMSAABgeo593Qf+MdSpKq5ziR1KlFWjY/dRyAAAAKYv1KkqrnOJHUqUVZvGtnJRWAAAgOkLdaqK61xihxKFQgYAADAzoU5VcZ1L7FCilIVsD4UMAABg+kKdquI6l9ihRFEhczcAAACAqYU6VcV1LrFDiVIWsr3uBgAAADC1UKequM4ldihRykJmbwAAAABTC3WqiutcYocShUIGAAAwM6FOVXGdS+xQolDIAAAAZibUqSquc4kdShQKGQAAwMyEOlXFdS6xQ4lCIQMAAJiZUKequM4ldihRKGQAAAAzE+pUFde5xA4lCoUMAABgZkKdquI6l9ihRKGQAQAAzEyoU1Vc5xI7lCgUMgAAgJkJdaqK61xihxJFhQwAAADTF+pUFde5xA4lilscAAAAnYU6VcV1LrFDieIWBwAAQGehTlVxnUvsUKK4xQEAANBZqFNVXOcSO5QobnEAAAB0FupUFde5xA4lilscAAAAnYU6VcV1LrFDieIWBwAAQGehTlVxnUvsUKK4xQEAANBZqFNVXOcSO5QobnEAAAB0FupUFde5xA4lilscAAAAnYU6VcV1LrFDieIWBwAAQGehTlVxnUvsUKK4xQEAANBZqFNVXOcSO5QobnEAAAB0FupUFde5xA4lilscAAAAnYU6VcV1LrFDieIWBwAAQGehTlVxnUvsUKK4xQEAANBZqFNVXOcSO5QobnEAAAB0FupUFde5xA4lilscAAAAnYU6VcV1LrFDieIWBwAAQGehTlVxnUvsUKK4xQEAANBZqFNVXOcSO5QobnEAAAB0FupUFde5xA4lilscAAAAnYU6VcV1LrFDieIWBwAAQGehTlVxnUvsUKK4xQEAANBZqFNVXOcSO5QobnEAAAB0FupUFde5xA4lilscAAAAnYU6VcV1LrFDieIWBwAAQGehTlVxnUvsUKK4xQEAANBZqFNVXOcSO5QobnEAAAB0FupUFde5xA4lilscAAAAnYU6VcV1LrFDieIWBwAAQGehTlVxnUvsUKK4xQEAANBZqFNVXOcSO5QobnEAAAB0FupUFde5xA4lilscAAAAnYU6VcV1LrFDieIWBwAAQGehTlVxnUvsUKK4xQEAANBZqFNVXOcSO5QobnEAAAB0FupUFde5xA4lilscAAAAnYU6VcV1LrFDieIWBwAAQGehTlVxnUvsUKK4xQEAANBZqFNVXOcSO5QobnEAAAB0FupUFde5xA4lilscAAAAnYU6VcV1LrFDieIWBwAAQGehTlVxnUvsUKK4xQEAANBZqFNVXOcSO5QobnEAAAB0FupUFde5xA4lilscAAAAnYU6VcV1LrFDieIWBwAAQGehTlVxnUvsUKK4xQEAANBZqFNVXOcSO5QobnEAAAB0FupUFde5xA4lilscAAAAnYU6VcV1LrFDieIWBwAAQGehTlVxnUvsUKK4xQEAANBZqFNVXOcSO5QobnEAAAB0FupUFde5xA4lilscAAAAnYU6VcV1LrFDieIWBwAAQGehTlVxnUvsUKK4xQEAANBZqFNVXOcSO5QobnEAAAB0FupUFde5xA4lilscAAAAnYU6VcV1LrFDieIWBwAAQGehTlVxnUvsUKK4xQEAANBZqFNVXOcSO5QobnEAAAB0FupUFde5xA4lilscAAAAnYU6VcV1LrFDieIWBwAAQGehTlVxnUvsUKK4xQEAANBZqFNVXOcSO5QobnEAAAB0FupUFde5xA4lilu8zd7+8UeLW+7eVTz40BPF4489Oe4f/ubHxa9/+RO01L6/48OPPFHcfs+u4pLrd9q/PQAAvRbqVBXXucQOJYpbvI1UwvY89bQ90DF4fvmTp4u77n28OP+qHXY/AADQC6FOVXGdS+xQorjF2+Rjt/5g/HB2hzYG39/99dPFjV/4od0bAAA0LdSpKq5ziR1KFLd4G5xz5Y7i/m/vtoc05p5t33uCZ8sAAD0X6lQV17nEDiWKWzx3Onif2vWkPZgxd+kla72H0O0ZAACaEOpUFde5xA4lils8Z3pmjDKGg9HL1zxTBgDolVCnqrjOJXYoUdziOdOnJ91BDOyjT2S6vQMAQGqhTlVxnUvsUKK4xXP1b27/gT2Agcn0qVu3hwAASCnUqSquc4kdShS3eI70UqU+UecOX2AyXXvuLR/l/WQAgGaFOlXFdS6xQ4niFs+RnvFwBy9wMF/95o/sXgIAIJVQp6q4ziV2KFHc4jniWmOYLj1LpmdW3X4CACCFUKequM4ldihR3OK5uejaR+2BC3Sy5TOP2T0FAEAKoU5VcZ1L7FCiuMVzo6/IcYct0Ik+lev2FAAAKYQ6VcV1LrFDieIWz42uwu4OW6CTn+5+yu4pAABSCHWqiutcYocSxS2eG11Xyh22QCd676HbUwAApBDqVBXXucQOJYpbPDe8oR+z4fYUAAAphDpVxXUusUOJ4hbPjT4t5w5aoBtuTwEAkEKoU1Vc5xI7lChu8dy4QxbolttTAACkEOpUFde5xA4lils8N+6QBbrl9hQAACmEOlXFdS6xQ4niFs+NO2SBbrk9BQBACqFOVXGdS+xQorjFc+MOWaBbbk8BAJBCqFNVXOcSO5QobvHcuEMW6JbbUwAApBDqVBXXucQOJYpbPDfukAW65fYUZmbZ224pjh9eUwwtXFzMmzcPAPpKj0XHnXpesXTNDfYxqxdCnariOpfYoURxi+fGHbJAt9yewvSdtHK9fUAEgByomLnHrqaFOlXFdS6xQ4niFs+NO2SBbrk9henR//p0D4AAkJNTzr3KPoY1KdSpKq5ziR1KFLd4btwhC3TL7SlMj/6Xp3vwA4CcHLNouX0Ma1KoU1Vc5xI7lChu8dy4QxbolttTmJ6jjl1kH/wAIDfuMaxJoU5VcZ1L7FCiuMVz4w5ZoFtuT2F6Fi5ZZR/4ACAnepO/ewxrUqhTVVznEjuUKG7x3LhDFuiW21OYniWrN9sHPwDIiT585B7DmhTqVBXXucQOJYpbPDfukAW65fYUpmdkw9Ziwckr7AMgAORAz46deflD9jGsSaFOVXGdS+xQorjFc+MOWaBbbk9h+lTKTh55H+8nA5CVI49eUJx4+tq+lDEJdaqK61xihxLFLZ4bd8gC3XJ7CgCAFEKdquI6l9ihRHGL58YdskC33J4CACCFUKequM4ldihR3OK5cYcs0C23pwAASCHUqSquc4kdShS3eG7cIQt0y+0pAABSCHWqiutcYocSxS2eG3fIAt1yewoAgBRCnariOpfYoURxi+fGHbJAt9yeAgAghVCnqrjOJXYoUdziuXGHLNAtt6cAAEgh1KkqrnOJHUoUt3hu3CELdMvtKQAAUgh1qorrXGKHEsUtnht3yALdcnsKAIAUQp2q4jqX2KFEcYvnxh2yQLfcngIAIIVQp6q4ziV2KFHc4rlxhyzQLbenAABIIdSpKq5ziR1KFLd4btwhC3TL7SkAAFIIdaqK61xihxLFLZ4bd8gC3XJ7CgCAFEKdquI6l9ihRHGL58YdskC33J4CACCFUKequM4ldihR3OK5cYcs0C23pwAASCHUqSquc4kdShS3eG7cIQt0y+0pAABSCHWqiutcYocSxS2eG3fIAt1yewoAgBRCnariOpfYoURxi+fGHbJAt9yeAgAghVCnqrjOJXYoUdziuXGHLNAtt6cAAEgh1KkqrnOJHUoUt3hu3CELdMvtKQAAUgh1qorrXGKHEsUtnht3yALdcnsKAIAUQp2q4jqX2KFEcYvnxh2yQLfcngIAIIVQp6q4ziV2KFHc4rlxhyzQLbenAABIIdSpKq5ziR1KFLd4btwhC3TL7SkAAFIIdaqK61xihxLFLZ4bd8gC3XJ7CgCAFEKdquI6l9ihRHGL58YdskC33J4CACCFUKequM4ldihR3OK5cYcs0C23pwAASCHUqSquc4kdShS3eG7cIQt0y+0pAABSCHWqiutcYocSxS2eG3fIAt1yewoAgBRCnariOpfYoURxi+fGHbJAt9yeAgAghVCnqrjOJXYoUdziuXGHLNAtt6cAAEgh1KkqrnOJHUoUt3hu3CELdMvtKQAAUgh1qorrXGKHEsUtnht3yALdcnsKAIAUQp2q4jqX2KFEcYvnxh2yQLfcngIAIIVQp6q4ziV2KFHc4rlxhyzQLbenAABIIdSpKq5ziR1KFLd4btwhOxf96pnHil0Pfb24947PjrvjpuuKh++9y/5b1NyeAgAghVCnqrjOJXYoUdziuXGH7FygAqbitWL50uLwFx+mv9uU3rh6pPj0NVvG/zu33lzl9hQAACmU528d17nEDiWKWzw37pAdVCpTeuZr8YkndFXCDkYlTuu425hr3J7qlWVvu6U4fnhNMbRwcTFv3jwAQEJ6bD3u1POKpWtusI/BvVCeuXVc5xI7lChu8dy4Q3bQqIh96OJ3z6qEOUNHHTnni5nbU71w0sr19gEEAJCeipl7LG5aedbWcZ1L7FCiuMVz4w7ZQaKXJVWcyj9HY/SMm95/5m5/0Lk91TT9rzX3gAEAaM4p515lH5ObVJ6xdVznEjuUKG7x3LhDdhCoIKkolX+GntGzcHo2bi69z8ztqabpf6m5BwsAQHOOWbTcPiY3qTxb67jOJXYoUdziuXGHbNvpWbHUL0/OhN5rppL2s+9/1/6cg8DtqaYddewi+2ABAGiWe0xuUnmW1nGdS+xQorjFc+MO2TbTJyFzKGOTvfstF9ift+3cnmrawiWr7AMFAKA5epO/e0xuUnl+1nGdS+xQorjFc+MO2bbSG+xzLGP7DOJ7zdyeatqS1ZvtgwUAoDn6MJV7TG5SeXbWcZ1L7FCiuMVz4w7ZNtLLgjmXsX30Mw5SKXN7qmkjG7YWC05eYR8wAADp6dmxMy9/yD4mN6k8N+u4ziV2KFHc4rlxh2wb6f1a5V3eCoNUytye6gWVspNH3sf7yQCgQUcevaA48fS1fSljUp6ZdVznEjuUKG7x3LhDtm30vrHy7m4VXYrD/S5t4/YUAAAplOdlHde5xA4lils8N+6QbRNdYqINL1U6KpLud2oTt6cAAEihPCvruM4ldihR3OK5cYdsm3xs0wcmCk4/qAzu+zJyXeLC/ZuD0X/rfqc2cXsKAIAUyrOyjutcYocSxS2eG3fItkW/nx3T+9YmX2NM/29d4sL9e6ft1yhzewoAgBTKc7KO61xihxLFLZ4bd8i2Rb/eO6YSqNue6or83T5z1/aXLd2eAgAghfKcrOM6l9ihRHGL58Ydsm3xxtUjE8WmV/a9RBn/HCpm1101Wvzt7m37zR++9y67Rkwvc8b/Tdu4PQUAQArlOVnHdS6xQ4niFs+NO2TboB8vV7qXKL//7a9MfHn5oc9//vh7yeL/uy5vMdXPqVIZ//u2cXsKAIAUynOyjutcYocSxS2eG3fItoGKTnkX98S+lygn/wyaHXLI8w749x/ecNl+/04lbvK/2Udrx/+2bdyeAgAghfKcrOM6l9ihRHGL58Ydsm2glw3Lu7hx7uuOHn3gy8W71rzR/vt93nfR24v//INHJv6bqV6+jNduG7enAABIoTwj67jOJXYoUdziuXGHbBv04g39+rTk5Dfuf+MLtxYvfclv238/mV7ifO4XT038twe7LMZUHw7IndtTAACkUJ6RdVznEjuUKG7x3LhDtg2aLGTujft6tmvz+9cVL3zBb9n/5mC2fOiS/dZxX/HU5q9RcnsKAIAUyjOyjutcYocSxS2eG3fItkEThUxFzD0r9sB/uL14w1ln2P+mk8Ne9MLij26s3+jvPoyglzPj22sTt6cAAEihPCPruM4ldihR3OK5cYdsG6S85IUKktZzz1TdfO1Hihe98AX2v+uWXuLcs2vrxJqT3/9GIQMA4EDlGVnHdS6xQ4niFs+NO2Rzl+KSF7pUhUqYLlPh3sP19Pe+VZy29NX2v50JrRW/nywulBQyAAAOVJ6RdVznEjuUKG7x3LhDNnfdfsJSpU3FS5+UVAHS1fNVfqZ6E73+b7psha4p5tacjRs+duV+t7Pv+mVt/vokt6cAAEihPCPruM4ldihR3OK5cYds7lRm9B6ymJ7pUlFT4dJLj/o3UxWvyfTf6FOQTRSxfbT2E4/cP3Gb+lk1p5ABAHCg8oys4zqX2KFEcYvnxh2yc4He06UCt+my9xQnnvDK8WLUC3q2Ln7pcvKV/dvG7SkAAFIoz806rnOJHUoUt3hu3CE7KFR89OzTn993d3H3rX84/pKhXrp8xbyXTxSkflAJdD9vG7k9BQBACuWZWcd1LrFDieIWz407ZNvkc5/6xPilKkTX+JLXLD6pOOJlL50oQDlq8xv5Y25PAQCQQnle1nGdS+xQorjFc+MO2TbRG/XLu7p19KnLH/6nr9nfqU3cngIAIIXyvKzjOpfYoURxi+fGHbJtctsN10yUnLZZ+9YLir1/tcv+Xm3h9hQAACmUZ2Ud17nEDiWKWzw37pBtk+/8yR0TBaeNeFM/AABeeU7WcZ1L7FCiuMVz4w7ZNtHLfuVd3Vpf+fzN9vdqC7enAABIoTwn67jOJXYoUdziuXGHbJvoJb8mrx3WNF6yBADAK8/JOq5ziR1KFLd4btwh2zbvePPvThScNtEnQt3v0yZuTwEAkEJ5VtZxnUvsUKK4xXPjDtm2ueszN0yUnDbRNwO436dN3J4CACCF8qys4zqX2KFEcYvnxh2ybfPjbQ8UL3vpSyaKThv8k0MOKb75pc/Z36dN3J4CACCF8rys4zqX2KFEcYvnxh2ybXT2Ga+bKDttMAgvV4rbUwAApFCel3Vc5xI7lChu8dy4Q7aN7vncTcXzf/M3JwpP7u68+Xr7e7SN21MAAKRQnpd1XOcSO5QobvHcuEO2rd587usnCk/OFsw/2v78beT2FAAAKZRnZh3XucQOJYpbPDfukG2r7371zuLII14+UXxy9FuHHlp84bN/YH/+NnJ7CgCAFMpzs47rXGKHEsUtnht3yLaZPrlY3vXZ0pegu5+7rdyeAgAghfLcrOM6l9ihRHGL58Ydsm32lzu+U1xwzlkTBSgnw69eXOx+5Bv2524rt6cAAEihPDvruM4ldihR3OK5cYds2/3t7m3FK+a9fKII5eCQQ55XfOvu2+3P22ZuTwEAkEJ5ftZxnUvsUKK4xXPjDtlBcP8XbytedfzCiULUTyqHn//0tfbnbDu3pwAASKE8Q+u4ziV2KFHc4rlxh+ygePjeu4oXvfAFE8WoH/TM2J/c/m/tzzcI3J4CACCF8hyt4zqX2KFEcYvnxh2yg+Tp732rOH7hsRMFqZcOf/FhxTe+cKv9uQaF21MAAKRQnqV1XOcSO5QobvHcuEN20DzxyP3F2rdeMFGUekHXRPuzr33R/jyDxO2pXln2tluK44fXFEMLFxfz5s0DACSkx9bjTj2vWLrmBvsY3AvleVrHdS6xQ4niFs+NO2QH0XO/eKq47qrR8Wetyj9NY/QS5e998OLx23M/x6Bxe6oXTlq53j6AAADSUzFzj8VNK8/VOq5ziR1KFLd4btwhO8h02YktH7qkmH/0KyZKVApHvOylxfvf84458axYzO2ppul/rbkHDABAc0459yr7mNyk8nyt4zqX2KFEcYvnxh2yc4EujaGLyA4ddeREqZqJl77kt4tL3vXW8eufudsZdG5PNU3/S809WAAAmnPMouX2MblJ5Tlbx3UusUOJ4hbPjTtk5xq98f+Gj11ZjJy+fPyZrvJPd1D61OZrFp9UfHjDZcXYN++x680lbk817ahjF9kHCwBAs9xjcpPKc7eO61xihxLFLZ4bd8jiJ8WeXVuLXQ99ffzSGaJnwPb+1S77b+cyt6eatnDJKvtAAQBojt7k7x6TmxTqVBXXucQOJYpbPDfukAW65fZU05as3mwfLAAAzdGHqdxjcpNCnariOpfYoURxi+fGHbJAt9yeatrIhq3FgpNX2AcMAEB6enbszMsfso/JTQp1qorrXGKHEsUtnht3yALdcnuqF1TKTh55H+8nA4AGHXn0guLE09f2pYxJqFNVXOcSO5QobvHcuEMW6JbbUwAApBDqVBXXucQOJYpbPDfukAW65fYUAAAphDpVxXUusUOJ4hbPjTtk5zJ9ulJftaRPVt5x03X7ueszN+z3qcv/9fPddo25xO0pAABSCHWqiutcYocSxS2eG3fIDjIVKRUrXVX/HW/+3WLF8qXjXz7e6fpjB6MLwy4+8YTi3FUri4//3ofGy9pcujyG21MAAKRQnrN1XOcSO5QobvHcuEN2UDwz9mDxlc/fXHxs0weKC845q1h4zNBEkWrSSw7/p8UZpw0XGy5eW/zxzZ8sHv/uffbnGwRuTwEAkEJ5ptZxnUvsUKK4xXPjDtm2evapHcW/u/7q8We+Fsw/eqIg5UBf0fTWN54z/vPpZVH387eR21MAAKRQnp91XOcSO5QobvHcuEO2Tf7iz/60uPnajxRvOvf1489MlXd79l582IuKN5x1RvEH//rK4vvf/or9vdrC7SkAAFIoz8w6rnOJHUoUt3hu3CGbO72Z/nOf+sT4d08ecsjzJopOW5229NXFp6/ZMv6F5+73zZnbUwAApFCekXVc5xI7lChu8dy4QzZXOx/4yviXep+86PiJMjNI/tnLX1a89+1rinvv+Gzxv3/xpL0PcuP2FAAAKZRnYx3XucQOJYpbPDfukM3N/V+8rVj/zrfM+JOQbbTqX7y2uPHjV41/KtTdJ7lwewoAgBTK87CO61xihxLFLZ4bd8jmQpeQ0Mt55V05Zx3+4sPGPyX6q2ces/dRv7k9BQBACuU5WMd1LrFDieIWz407ZPvtT7/078c/Kfm857X//WGpLDlpUXH9Rzdn9wlNt6cAAEihPP/quM4ldihR3OK5cYdsv2z9+peKS9994fizQuXdB+P0Zb8zfumM//6XeTxj5vYUAAAplOdeHde5xA4lils8N+6Q7TVd2X7TZe8pDn3+8yeKB6b2msUnFbse+rq9P3vJ7SkAAFIoz7s6rnOJHUoUt3hu3CHbS3ff+ofFytcOTxQNdO/oI+cVn/zIFX39qia3pwAASKE86+q4ziV2KFHc4rlxh2wv/HjbA8XGSy4qDnvRCycKBmbmXWveWDz6wJft/dw0t6cAAEihPOPquM4ldihR3OK5cYds0/Tl3novVHkXIRG9hPlHN15n7+8muT0FAEAK5flWx3UusUOJ4hbPjTtkm3Ttlo28V6whul91/7r7vSluTwEAkEJ5ttVxnUvsUKK4xXPjDtmmXL35gwPxVUc50/17zZWX2/u/CW5PAQCQQnmu1XGdS+xQorjFc+MO2SbouyfLuwQ9cusN19i/Q2puTwEAkEJ5ntVxnUvsUKK4xXPjDtnUfvTwfcWpS06eKAto3iknv2r8uz/d3yMlt6cAAEihPM/quM4ldihR3OK5cYdsarrGWHl3oMf0ReXu75GS21MAAKRQnmV1XOcSO5QobvHcuEM2pf/69KPF4hNPmCgJ6J0F848ufvbYw/bvkorbUwAApFCeZXVc5xI7lChu8dy4Qzalb919+0RBQO/pwrvu75KK21MAAKRQnmN1XOcSO5QobvHcuEM2pQ9vuGyiHKD3PrjunfbvkorbUwAApFCeY3Vc5xI7lChu8dy4Qzald645b6IcoPfOO/tM+3dJxe0pAABSKM+xOq5ziR1KFLd4btwhm5KuIF/eFeiT4xcea/8uqbg9BQBACuU5Vsd1LrFDieIWz407ZFPiDf39NXTUkfbvkorbUwAApFCeY3Vc5xI7lChu8dy4QzYlCll/UcgAAG1VnmN1XOcSO5QobvHcuEM2JQpZf1HIAABtVZ5jdVznEjuUKG7x3LhDNiUKWX9RyAAAbVWeY3Vc5xI7lChu8dy4QzYlCll/UcgAAG1VnmN1XOcSO5QobvHcuEM2JQpZf1HIAABtVZ5jdVznEjuUKG7x3LhDNiUKWX9RyAAAbVWeY3Vc5xI7lChu8dy4QzYlCll/UcgAAG1VnmN1XOcSO5QobvHcuEM2JQpZf1HIAABtVZ5jdVznEjuUKG7x3LhDNiUKWX9RyAAAbVWeY3Vc5xI7lChu8dy4QzYlCll/UcgAzEXL3nZLcfzwmmJo4eJi3rx5mAHdd8edel6xdM0N9j7uhfIcq+M6l9ihRHGL58YdsilRyPprkAsZD7hA93I4XHvlpJXr7X2AmdPecfd108pzrI7rXGKHEsUtnht3yKZEIeuvQS1kPOACM9evw7UXVDjd74zZO+Xcq+x93qTyHKvjOpfYoURxi+fGHbIpUcj6axALGQ+4wOz143DtBZVN9/ti9o5ZtNze500qz7E6rnOJHUoUt3hu3CGbEoWsvwaxkPGAC8xePw7XXjjq2EX290Ua7j5vUnmO1XGdS+xQorjFc+MO2ZQoZP01iIWMB1wgDff/v9pu4ZJV9nfF7Ol9iO4+b1J5jtVxnUvsUKK4xXPjDtmUKGT9NYiFjAdcYPb6cbj2wpLVm+3vi9nTe3fdfd6k8hyr4zqX2KFEcYvnxh2yKVHI+msQCxkPuMDs9eNw7YWRDVuLBSevsL8zZk4F/szLH7L3eZPKc6yO61xihxLFLZ4bd8imRCHrr0EsZDzgArPTr8O1V/QYcfLI+3h7QwJHHr2gOPH0tX3bL+U5Vsd1LrFDieIWz407ZFOikPXXIBYy4QEXmL5+H67AdJXnWB3XucQOJYpbPDfukE2JQtZfg1rIAACDrzzH6rjOJXYoUdziuXGHbEoUsv6ikAEA2qo8x+q4ziV2KFHc4rlxh2xKFLL+opABANqqPMfquM4ldihR3OK5cYdsSqctffV4KUB/6P53f5dU3J4CACCFUKequM4ldihR3OK5cYcs0C23pwAASCHUqSquc4kdSpRVo2PPuRvIiTtkgW65PQUAQAqhTlVxnUvsUKKUi+2ZvHhu3CELdMvtKQAAUgh1qorrXGKHEqVcjEKGgeb2FAAAKYQ6VcV1LrFDiTKyaWynu4GcuEMW6JbbUwAAzNro2LOhTlVxnUvsUKKUC2494AYy83d//bQ9aIFuuD0FAEACe0KdquI6l9ihRCkXe3DS4tn56e6n7EELdLL35z+2ewoAgNkaGd3+TKhTVVznEjuUKKtGd9zpbiQnO3f8hT1sgU72PPW03VMAACSwNdSpKq5ziR1KlJFNYzeZG8jKV7/5I3vYAp1s+94Tdk8BADBro2P3hTpVxXUusUOJsmrj2GX2RjKy5TOP2cMW6OT6O35g9xQAALM1csXYJ0OdquI6l9ihRBm5YvtKdyM5OefKHePvBXIHLjCVt3z0UbunAACYrbM2jV0U6lQV17nEDiXKis1bj3A3kpv7v73bHrjAwfByJQCgUaPbl4U6VcV1LrFDmZRy0b0H3Ehm9EzHP/wNz5Khe5dcv9PuJQAAUlixYevhoUpVcZ1L7FAmZWTT9t3uhnJz172P24MXmOzBh3h2DADQqL2hRtVxnUvsUCalDZe+EL2X7KldT9oDGNjnlz95ujj/qh12DwEAkMj+l7xQXOcSO5RJ0ZvSzA1l6e0ff5Qr9+Og9LI2L1UCAJo2Mrr9mlCj6rjOJXYok3L2hp3z3Y3lSgcun7rEZCpjukSK2zMAAKSkq1SEGlXHdS6xQzHR5f/dDeZKz5TxlUrYRy9T8swYAKBH9q64euuhoULVcZ1L7FBM2nDF/sn0njKu4o+HH3mC94wBAHpn8hX698V1LrFDMTlz07bz7Y22gJ4t0zWn3GGNwfX4Y08WH/zU9+2eAACgMaPbN4b6tH9c5xI7FBNdS6NsfM/ZG24JXatMX5WjcqaXsNwhjvbShzn0RfO33L1rvIS7PQAAQNNev2nHCaE+7R/XucQO5SApb+SeyTcKAACAysimsZ2hNh0Y17nEDuUgGRndttrdOAAAAEoHe7lScZ1L7FAOEn1iYNXo2LP2BwAAAJjj9B3goTYdGNe5xA5lirTx05YAAAA98GCoSz6uc4kdyhQ5a8PYEvMDAAAAzGn6ZqNQl3xc5xI7lA5py5eNAwAA9MTo2LP2YrBxXOcSO5QOafM1yQAAAJKb6s38++I6l9ihdBGeJQMAACh18+yY4jqX2KF0EZ4lAwAAKHXz7JjiOpfYoXQZniUDAABzWrfPjimuc4kdSpfhWTIAADCndfvsmOI6l9ihTCPlD/PgAT8cAADAgNMrhV0/O6a4ziV2KNOIvkCz7V86DgAAMF0jV2xfGepQd3GdS+xQppmR0e3XuB8UAABgII3uuDPUoO7jOpfYoUwz499xuWlszwE/LAAAwODZO+V3Vh4srnOJHcoMMjK6bbX5gQEAAAbLxrHLQv2ZXlznEjuUGYYvHgcAAANtdOy+UHumH9e5xA5lhtFLl2Up22l/AQAAgHbbs2LD1sND7Zl+XOcSO5RZ5OwNO+eXP/DeSb8AAABAe+mKEqPbl4W6M7O4ziV2KLMMF4wFAAADZToXgD1YXOcSO5QEGdm0/Tb7CwEAALTJbN43Fsd1LrFDSZTyl7jngF8KAACgPbZO62r8U8V1LrFDSZRwfTK+WgkAALTO+FcjzeZN/JPjOpfYoSRM9cnL7bvdLwoAAJCpPTO6+OtUcZ1L7FASR+2SUgYAAFpij64aEWpMurjOJXYoDYRSBgAAWqCZMqa4ziV2KA1Fpaz8RXlPGQAAyM74e8ZSv0wZx3UusUNpMOGN/nz6EgAA5GRr0jfwu7jOJXYoPciq0R13mjsDAACgt0bH7kt2aYup4jqX2KH0KGdtGrto/KsI3J0DAADQtI3bt4Ra0nxc5xI7lB7m9Zt2nDAyuv0ZeycBAAA0YXTs2Vl/N+V04zqX2KH0OOFaZXzVEgAAaJ5eomz6/WIurnOJHUqfcubotgvHG6u78wAAAGZnb5IvCZ9pXOcSO5Q+prpe2dhN5k4EAACYqXsavaRFN3GdS+xQMohe1y2L2U5zhwIAAHRF71MfGd22OtSL/sZ1LrFDySirNo5dxsuYAABgmvbqE5Q9uZxFt3GdS+xQMsv4xWRHt2+kmAEAgA72joxuv6Yvb9rvFNe5xA4l44xfu2zT2J5Jdz4AAJjb8i1i++I6l9ihtCDhE5n3mT8IAACYI8bfb75x7LKsi9i+uM4ldigtiv4A+kPwAQAAAOaG8QvKb9y+5ewNO+eHOtCOuM4ldigtjf4w4b1m95X4SiYAAAbHVr0kedaGsSXh2G9fXOcSO5QBiS6doQatP+KkPyoAAMiYXvkauWLsk7pkRVaflJxNXOcSO5QBjS4IN3LF9pV6Fk0tu/yDq6gJHxIAAKCXqisnjJ/DKl56AkVndOtehpxOXOcSOxRCCCGEEJI2rnOJHQohhBBCCEkb17nEDoUQQgghhKSN61xihwAAAOgdOwQAAEDv2CEAAAB6xw4BAADQO3YIAACA3rFDAAAA9Mj5xf8H4ECuCOVuAHUAAAAASUVORK5CYII=;rotation=-180;strokeWidth=2;fontSize=20;fontStyle=1" vertex="1" parent="1">
          <mxGeometry x="529" y="90" width="155.33" height="100" as="geometry" />
        </mxCell>
        <mxCell id="tfkeWMqK3DqRTS9kO2S6-35" value="" style="endArrow=classic;startArrow=classic;html=1;strokeColor=#0000FF;fontColor=#FF0000;strokeWidth=2;fontSize=20;fontStyle=1" edge="1" parent="1">
          <mxGeometry width="50" height="50" relative="1" as="geometry">
            <mxPoint x="520" y="190" as="sourcePoint" />
            <mxPoint x="520" y="90" as="targetPoint" />
          </mxGeometry>
        </mxCell>
        <mxCell id="tfkeWMqK3DqRTS9kO2S6-36" value="W" style="text;html=1;align=center;verticalAlign=middle;resizable=0;points=[];autosize=1;strokeColor=none;fillColor=none;fontColor=#0000FF;strokeWidth=2;fontSize=20;fontStyle=1" vertex="1" parent="1">
          <mxGeometry x="480" y="120" width="40" height="40" as="geometry" />
        </mxCell>
        <mxCell id="tfkeWMqK3DqRTS9kO2S6-37" value="" style="endArrow=classic;startArrow=classic;html=1;strokeColor=#FF0000;strokeWidth=2;fontSize=20;fontStyle=1" edge="1" parent="1">
          <mxGeometry width="50" height="50" relative="1" as="geometry">
            <mxPoint x="529" y="80" as="sourcePoint" />
            <mxPoint x="680" y="80" as="targetPoint" />
          </mxGeometry>
        </mxCell>
        <mxCell id="tfkeWMqK3DqRTS9kO2S6-38" value="L" style="text;html=1;align=center;verticalAlign=middle;resizable=0;points=[];autosize=1;strokeColor=none;fillColor=none;fontColor=#FF0000;strokeWidth=2;fontSize=20;fontStyle=1" vertex="1" parent="1">
          <mxGeometry x="590" y="40" width="40" height="40" as="geometry" />
        </mxCell>
      </root>
    </mxGraphModel>
  </diagram>
</mxfile>
